<svg xmlns="http://www.w3.org/2000/svg" xmlns:xlink="http://www.w3.org/1999/xlink" viewBox="0 0 160 238"><defs><style>.cls-1{fill:none;}.cls-2{clip-path:url(#clip-path);}.cls-3{clip-path:url(#clip-path-2);}.cls-4{clip-path:url(#clip-path-3);}.cls-5{clip-path:url(#clip-path-4);}.cls-6{clip-path:url(#clip-path-5);}.cls-7{clip-path:url(#clip-path-6);}.cls-8{clip-path:url(#clip-path-7);}.cls-9{clip-path:url(#clip-path-8);}.cls-10{opacity:0.6;}.cls-11{fill:#fff;}</style><clipPath id="clip-path"><path class="cls-1" d="M-1302.9,1220.6h388.68a7.54,7.54,0,0,1,7.53,7.54,7.53,7.53,0,0,1-7.53,7.53H-1302.9a7.53,7.53,0,0,1-7.53-7.53A7.54,7.54,0,0,1-1302.9,1220.6Z"/></clipPath><clipPath id="clip-path-2"><path class="cls-1" d="M-592.33-1120.51v12a6.55,6.55,0,0,0,4-6,6.54,6.54,0,0,0-4-6"/></clipPath><clipPath id="clip-path-3"><path class="cls-1" d="M-650.45-1125.53h43.93a5.81,5.81,0,0,1,3.09.53,3.65,3.65,0,0,1,1.52,1.52,5.85,5.85,0,0,1,.54,3.1v11.79a5.85,5.85,0,0,1-.54,3.1,3.65,3.65,0,0,1-1.52,1.52,5.81,5.81,0,0,1-3.09.53h-43.93a5.88,5.88,0,0,1-3.1-.53,3.71,3.71,0,0,1-1.52-1.52,5.88,5.88,0,0,1-.53-3.1v-11.79a5.88,5.88,0,0,1,.53-3.1,3.71,3.71,0,0,1,1.52-1.52A5.88,5.88,0,0,1-650.45-1125.53Z"/></clipPath><clipPath id="clip-path-4"><path class="cls-1" d="M-744-1130.56h3a3,3,0,0,1,3,3v26.11a3,3,0,0,1-3,3h-3a3,3,0,0,1-3-3v-26.11A3,3,0,0,1-744-1130.56Zm-14.06,7h3a3,3,0,0,1,3,3v19.08a3,3,0,0,1-3,3h-3a3,3,0,0,1-3-3v-19.08A3,3,0,0,1-758-1123.52Zm-14.06,7h3a3,3,0,0,1,3,3v12a3,3,0,0,1-3,3h-3a3,3,0,0,1-3-3v-12A3,3,0,0,1-772.11-1116.49Zm-14.06,6h3a3,3,0,0,1,3,3v6a3,3,0,0,1-3,3h-3a3,3,0,0,1-3-3v-6A3,3,0,0,1-786.17-1110.47Zm93.09,5.67a.9.9,0,0,0,.28-.69,1,1,0,0,0-.31-.69,10.36,10.36,0,0,0-13.37,0,1,1,0,0,0-.31.69.94.94,0,0,0,.28.69l6,6.1a.91.91,0,0,0,.67.28,1,1,0,0,0,.67-.28Zm-6.71-8.41a14.85,14.85,0,0,1,10,3.84.94.94,0,0,0,1.31,0l3.49-3.53a.94.94,0,0,0,.29-.69,1,1,0,0,0-.3-.7,21.68,21.68,0,0,0-29.5,0,1,1,0,0,0-.3.7.94.94,0,0,0,.29.69l3.49,3.53a.94.94,0,0,0,1.31,0A14.85,14.85,0,0,1-699.79-1113.21Zm0-11.47a26.13,26.13,0,0,1,18,7.18.92.92,0,0,0,1.31,0l3.5-3.52a1,1,0,0,0,.28-.69.94.94,0,0,0-.29-.69,33,33,0,0,0-45.61,0,.94.94,0,0,0-.29.69,1,1,0,0,0,.28.69l3.5,3.52a.92.92,0,0,0,1.31,0A26.16,26.16,0,0,1-699.79-1124.68Z"/></clipPath><clipPath id="clip-path-5"><path class="cls-1" d="M-2890.9,1220.6h388.68a7.54,7.54,0,0,1,7.53,7.54,7.53,7.53,0,0,1-7.53,7.53H-2890.9a7.53,7.53,0,0,1-7.53-7.53A7.54,7.54,0,0,1-2890.9,1220.6Z"/></clipPath><clipPath id="clip-path-6"><path class="cls-1" d="M-2180.33-1120.51v12a6.55,6.55,0,0,0,4-6,6.54,6.54,0,0,0-4-6"/></clipPath><clipPath id="clip-path-7"><path class="cls-1" d="M-2238.45-1125.53h43.93a5.81,5.81,0,0,1,3.09.53,3.65,3.65,0,0,1,1.52,1.52,5.85,5.85,0,0,1,.54,3.1v11.79a5.85,5.85,0,0,1-.54,3.1,3.65,3.65,0,0,1-1.52,1.52,5.81,5.81,0,0,1-3.09.53h-43.93a5.88,5.88,0,0,1-3.1-.53,3.71,3.71,0,0,1-1.52-1.52,5.88,5.88,0,0,1-.53-3.1v-11.79a5.88,5.88,0,0,1,.53-3.1,3.71,3.71,0,0,1,1.52-1.52A5.88,5.88,0,0,1-2238.45-1125.53Z"/></clipPath><clipPath id="clip-path-8"><path class="cls-1" d="M-2332-1130.56h3a3,3,0,0,1,3,3v26.11a3,3,0,0,1-3,3h-3a3,3,0,0,1-3-3v-26.11A3,3,0,0,1-2332-1130.56Zm-14.06,7h3a3,3,0,0,1,3,3v19.08a3,3,0,0,1-3,3h-3a3,3,0,0,1-3-3v-19.08A3,3,0,0,1-2346-1123.52Zm-14.06,7h3a3,3,0,0,1,3,3v12a3,3,0,0,1-3,3h-3a3,3,0,0,1-3-3v-12A3,3,0,0,1-2360.11-1116.49Zm-14.06,6h3a3,3,0,0,1,3,3v6a3,3,0,0,1-3,3h-3a3,3,0,0,1-3-3v-6A3,3,0,0,1-2374.17-1110.47Zm93.09,5.67a.9.9,0,0,0,.28-.69,1,1,0,0,0-.31-.69,10.36,10.36,0,0,0-13.37,0,1,1,0,0,0-.31.69.94.94,0,0,0,.28.69l6.05,6.1a.91.91,0,0,0,.67.28,1,1,0,0,0,.67-.28Zm-6.71-8.41a14.85,14.85,0,0,1,10,3.84.94.94,0,0,0,1.31,0l3.49-3.53a.94.94,0,0,0,.29-.69,1,1,0,0,0-.3-.7,21.68,21.68,0,0,0-29.5,0,1,1,0,0,0-.3.7.94.94,0,0,0,.29.69l3.49,3.53a.94.94,0,0,0,1.31,0A14.85,14.85,0,0,1-2287.79-1113.21Zm0-11.47a26.13,26.13,0,0,1,18,7.18.92.92,0,0,0,1.31,0l3.5-3.52a1,1,0,0,0,.28-.69.94.94,0,0,0-.29-.69,33,33,0,0,0-45.61,0,.94.94,0,0,0-.29.69,1,1,0,0,0,.28.69l3.5,3.52a.92.92,0,0,0,1.31,0A26.16,26.16,0,0,1-2287.79-1124.68Z"/></clipPath></defs><g id="Art"><g class="cls-10"><path class="cls-11" d="M92.57,107.62a3.7,3.7,0,0,0-2.11-3.83,15.36,15.36,0,0,0-8.1-1.89,15.4,15.4,0,0,0-8.11,1.89,3.7,3.7,0,0,0-2.1,3.83c.44,4.76,4.79,10.75,8.39,12.08a49.73,49.73,0,0,1,1.77-8,.14.14,0,0,0,.09,0,48.39,48.39,0,0,1,1.78,8C87.77,118.37,92.13,112.38,92.57,107.62Z"/><path class="cls-11" d="M59.69,164.47a22.84,22.84,0,0,1,7-1.6L57.3,133C58.13,143.19,59.19,155.7,59.69,164.47Z"/><path class="cls-11" d="M98.09,162.84a18.57,18.57,0,0,1,6.76,1.57c.53-8.62,1.6-20.72,2.46-30.78Z"/><path class="cls-11" d="M104.77,176.7a34,34,0,0,1-.25-4.17c0-1.59.09-3.73.22-6.24-7-3.39-13.89-.79-16.4.42.24,2.49.47,4.51.66,5.82v4.26C95.47,179.93,101.83,178,104.77,176.7Z"/><path class="cls-11" d="M59.79,166.33c.13,2.38.2,4.41.2,5.94a35.91,35.91,0,0,1-.29,4.56c6.53,3.13,12.93,1.08,15.8-.18v-4.38c.18-1.27.41-3.18.65-5.54C69.55,163.1,62.92,165,59.79,166.33Z"/><path class="cls-11" d="M96.5,180.27A18.71,18.71,0,0,1,89,178.73l0,41.55c-.06,1.2.23,2.39,1.71,2.39h7.78c1.13,0,2.09-1.31,2.39-2.39,5.94-21.08,4.82-33.95,4-41.74A22.5,22.5,0,0,1,96.5,180.27Z"/><path class="cls-11" d="M75.5,178.57a22.47,22.47,0,0,1-8.38,1.7,18.62,18.62,0,0,1-7.6-1.6c-.8,7.83-1.79,20.62,4,41.35.3,1.08,1.26,2.39,2.39,2.39h7.78c1.48,0,1.77-1.19,1.71-2.39Z"/><path class="cls-11" d="M84.38,121.18c.75,6.71,2.5,30.33,3.77,43.68a22.8,22.8,0,0,1,8.1-2L108,125.76c.37-4.66.62-8.23.61-9.78,0-4.79-1.31-9.33-2.41-13.9A57.18,57.18,0,0,1,105,82.77c.75-7.42.87-14.92,1-22.39.16-10.86-1.74-34.63-3.13-40.76-.76-3.35-5.79-4.79-7.54-3.6-1.92,1.3-3.64,2.86-5.46,4.28a12.37,12.37,0,0,1-7.51,2.19,12.38,12.38,0,0,1-7.52-2.19C73,18.88,71.28,17.35,69.39,16c-1.41-1-6.33.37-7.54,3.6-2.21,5.89-3.29,29.9-3.14,40.76.11,7.47.22,15,1,22.39a56.93,56.93,0,0,1-1.13,19.31c-1.1,4.57-2.37,9.11-2.4,13.9,0,1.48.2,4.85.54,9.24l11.87,37.62a18.56,18.56,0,0,1,7.8,2c1.33-13.25,3.23-37,4-43.66-5.25-1.48-9.12-8.65-9.67-12.14-.58-3.67.4-5.75,3.8-7.27a18.13,18.13,0,0,1,7.9-1.58,18.09,18.09,0,0,1,7.89,1.58c3.41,1.52,4.39,3.6,3.81,7.27C93.51,112.53,89.63,119.7,84.38,121.18Zm8.05-34.83a34.16,34.16,0,0,1-10.07,1.73,34,34,0,0,1-10.07-1.73c-4.88-1.6-5.72-4-6.85-9.23-2.68-12.51-2.37-35.35-.55-45.74a35.69,35.69,0,0,1,1.86-6.65c.84-2.18,2.72-2.73,4.48-1.21a13,13,0,0,1,3.2,4.31c1.85,4.05,2.41,8.45,2.69,12.85a102.77,102.77,0,0,1-6,41.16C70.77,83,71,83.55,72,84a26.84,26.84,0,0,0,10.32,2.15h.07A26.84,26.84,0,0,0,92.71,84c1-.45,1.24-1,.83-2.16a102.77,102.77,0,0,1-6-41.16c.28-4.4.84-8.8,2.7-12.85a12.82,12.82,0,0,1,3.19-4.31c1.77-1.52,3.64-1,4.48,1.21a35.71,35.71,0,0,1,1.87,6.65c1.82,10.39,2.13,33.23-.55,45.74C98.15,82.39,97.3,84.75,92.43,86.35Z"/></g></g></svg>