<svg xmlns="http://www.w3.org/2000/svg" xmlns:xlink="http://www.w3.org/1999/xlink" viewBox="0 0 160 238"><defs><style>.cls-1{fill:none;}.cls-2{clip-path:url(#clip-path);}.cls-3{clip-path:url(#clip-path-2);}.cls-4{clip-path:url(#clip-path-3);}.cls-5{clip-path:url(#clip-path-4);}.cls-6{clip-path:url(#clip-path-5);}.cls-7{clip-path:url(#clip-path-6);}.cls-8{clip-path:url(#clip-path-7);}.cls-9{clip-path:url(#clip-path-8);}.cls-10{opacity:0.6;}.cls-11{fill:#fff;}</style><clipPath id="clip-path"><path class="cls-1" d="M-1302.9,1458.6h388.68a7.54,7.54,0,0,1,7.53,7.54,7.53,7.53,0,0,1-7.53,7.53H-1302.9a7.53,7.53,0,0,1-7.53-7.53A7.54,7.54,0,0,1-1302.9,1458.6Z"/></clipPath><clipPath id="clip-path-2"><path class="cls-1" d="M-592.33-882.51v12a6.55,6.55,0,0,0,4-6,6.54,6.54,0,0,0-4-6"/></clipPath><clipPath id="clip-path-3"><path class="cls-1" d="M-650.45-887.53h43.93a5.81,5.81,0,0,1,3.09.53,3.65,3.65,0,0,1,1.52,1.52,5.85,5.85,0,0,1,.54,3.1v11.79a5.85,5.85,0,0,1-.54,3.1,3.65,3.65,0,0,1-1.52,1.52,5.81,5.81,0,0,1-3.09.53h-43.93a5.88,5.88,0,0,1-3.1-.53,3.71,3.71,0,0,1-1.52-1.52,5.88,5.88,0,0,1-.53-3.1v-11.79a5.88,5.88,0,0,1,.53-3.1,3.71,3.71,0,0,1,1.52-1.52A5.88,5.88,0,0,1-650.45-887.53Z"/></clipPath><clipPath id="clip-path-4"><path class="cls-1" d="M-744-892.56h3a3,3,0,0,1,3,3v26.11a3,3,0,0,1-3,3h-3a3,3,0,0,1-3-3v-26.11A3,3,0,0,1-744-892.56Zm-14.06,7h3a3,3,0,0,1,3,3v19.08a3,3,0,0,1-3,3h-3a3,3,0,0,1-3-3v-19.08A3,3,0,0,1-758-885.52Zm-14.06,7h3a3,3,0,0,1,3,3v12.05a3,3,0,0,1-3,3h-3a3,3,0,0,1-3-3v-12.05A3,3,0,0,1-772.11-878.49Zm-14.06,6h3a3,3,0,0,1,3,3v6a3,3,0,0,1-3,3h-3a3,3,0,0,1-3-3v-6A3,3,0,0,1-786.17-872.47Zm93.09,5.67a.9.9,0,0,0,.28-.69,1,1,0,0,0-.31-.69,10.36,10.36,0,0,0-13.37,0,1,1,0,0,0-.31.69.94.94,0,0,0,.28.69l6,6.1a.91.91,0,0,0,.67.28,1,1,0,0,0,.67-.28Zm-6.71-8.41a14.85,14.85,0,0,1,10,3.84.94.94,0,0,0,1.31,0l3.49-3.53a.94.94,0,0,0,.29-.69,1,1,0,0,0-.3-.7,21.68,21.68,0,0,0-29.5,0,1,1,0,0,0-.3.7.94.94,0,0,0,.29.69l3.49,3.53a.94.94,0,0,0,1.31,0A14.85,14.85,0,0,1-699.79-875.21Zm0-11.47a26.13,26.13,0,0,1,18,7.18.92.92,0,0,0,1.31,0L-677-883a1,1,0,0,0,.28-.69.94.94,0,0,0-.29-.69,33,33,0,0,0-45.61,0,.94.94,0,0,0-.29.69,1,1,0,0,0,.28.69l3.5,3.52a.92.92,0,0,0,1.31,0A26.16,26.16,0,0,1-699.79-886.68Z"/></clipPath><clipPath id="clip-path-5"><path class="cls-1" d="M-2890.9,1458.6h388.68a7.54,7.54,0,0,1,7.53,7.54,7.53,7.53,0,0,1-7.53,7.53H-2890.9a7.53,7.53,0,0,1-7.53-7.53A7.54,7.54,0,0,1-2890.9,1458.6Z"/></clipPath><clipPath id="clip-path-6"><path class="cls-1" d="M-2180.33-882.51v12a6.55,6.55,0,0,0,4-6,6.54,6.54,0,0,0-4-6"/></clipPath><clipPath id="clip-path-7"><path class="cls-1" d="M-2238.45-887.53h43.93a5.81,5.81,0,0,1,3.09.53,3.65,3.65,0,0,1,1.52,1.52,5.85,5.85,0,0,1,.54,3.1v11.79a5.85,5.85,0,0,1-.54,3.1,3.65,3.65,0,0,1-1.52,1.52,5.81,5.81,0,0,1-3.09.53h-43.93a5.88,5.88,0,0,1-3.1-.53,3.71,3.71,0,0,1-1.52-1.52,5.88,5.88,0,0,1-.53-3.1v-11.79a5.88,5.88,0,0,1,.53-3.1,3.71,3.71,0,0,1,1.52-1.52A5.88,5.88,0,0,1-2238.45-887.53Z"/></clipPath><clipPath id="clip-path-8"><path class="cls-1" d="M-2332-892.56h3a3,3,0,0,1,3,3v26.11a3,3,0,0,1-3,3h-3a3,3,0,0,1-3-3v-26.11A3,3,0,0,1-2332-892.56Zm-14.06,7h3a3,3,0,0,1,3,3v19.08a3,3,0,0,1-3,3h-3a3,3,0,0,1-3-3v-19.08A3,3,0,0,1-2346-885.52Zm-14.06,7h3a3,3,0,0,1,3,3v12.05a3,3,0,0,1-3,3h-3a3,3,0,0,1-3-3v-12.05A3,3,0,0,1-2360.11-878.49Zm-14.06,6h3a3,3,0,0,1,3,3v6a3,3,0,0,1-3,3h-3a3,3,0,0,1-3-3v-6A3,3,0,0,1-2374.17-872.47Zm93.09,5.67a.9.9,0,0,0,.28-.69,1,1,0,0,0-.31-.69,10.36,10.36,0,0,0-13.37,0,1,1,0,0,0-.31.69.94.94,0,0,0,.28.69l6.05,6.1a.91.91,0,0,0,.67.28,1,1,0,0,0,.67-.28Zm-6.71-8.41a14.85,14.85,0,0,1,10,3.84.94.94,0,0,0,1.31,0l3.49-3.53a.94.94,0,0,0,.29-.69,1,1,0,0,0-.3-.7,21.68,21.68,0,0,0-29.5,0,1,1,0,0,0-.3.7.94.94,0,0,0,.29.69l3.49,3.53a.94.94,0,0,0,1.31,0A14.85,14.85,0,0,1-2287.79-875.21Zm0-11.47a26.13,26.13,0,0,1,18,7.18.92.92,0,0,0,1.31,0l3.5-3.52a1,1,0,0,0,.28-.69.94.94,0,0,0-.29-.69,33,33,0,0,0-45.61,0,.94.94,0,0,0-.29.69,1,1,0,0,0,.28.69l3.5,3.52a.92.92,0,0,0,1.31,0A26.16,26.16,0,0,1-2287.79-886.68Z"/></clipPath></defs><g id="Art"><g class="cls-10"><path class="cls-11" d="M48.46,205.8a63.15,63.15,0,0,1,23.66,0,.25.25,0,0,1,0,.49,57.41,57.41,0,0,1-23.68,0A.25.25,0,0,1,48.46,205.8Z"/><path class="cls-11" d="M9.15,205.8a63.21,63.21,0,0,1,23.67,0,.25.25,0,0,1,0,.49,57.36,57.36,0,0,1-23.67,0A.25.25,0,0,1,9.15,205.8Z"/><path class="cls-11" d="M54.41,151.75a4.94,4.94,0,0,0-2.82-5.12,20.57,20.57,0,0,0-10.84-2.54,20.57,20.57,0,0,0-10.84,2.54,5,5,0,0,0-2.83,5.12c.59,6.37,6.42,14.39,11.23,16.16.44-3.41,2-10.19,2.38-10.69,0,0,.1,0,.12,0,.4.5,1.93,7.28,2.37,10.69C48,166.14,53.82,158.12,54.41,151.75Z"/><path class="cls-11" d="M46.49,197.05q.38,3.36.76,6.76a52.35,52.35,0,0,1,25.9.11c.12-.79.38-3.31.68-6.78C62,192.76,49.86,196,46.49,197.05Z"/><path class="cls-11" d="M43.46,169.9c.92,8.24,1.83,16.41,2.76,24.68,4.1-1.27,15.83-4.12,27.82.07.82-9.73,1.83-24.42,1.78-31.72,0-6.4-1.75-12.48-3.22-18.59a76.55,76.55,0,0,1-1.51-25.84c1-9.93,1.16-20,1.3-30C72.6,74,70.06,42.2,68.2,34c-1-4.48-7.74-6.4-10.1-4.81-2.56,1.73-4.87,3.83-7.3,5.73-2.62,2-6.4,2.93-10,2.92s-7.44-.88-10-2.92c-2.43-1.9-4.77-4-7.3-5.73-1.89-1.32-8.48.49-10.1,4.81-3,7.88-4.4,40-4.19,54.55.14,10,.3,20,1.3,30a76.3,76.3,0,0,1-1.52,25.84c-1.47,6.11-3.16,12.19-3.21,18.59-.08,10.85,2.2,38,2.67,41a52.35,52.35,0,0,1,25.9-.11L38,169.9c-7-2-12.21-11.58-12.95-16.25-.77-4.92.54-7.69,5.09-9.73a24.21,24.21,0,0,1,10.57-2.11,24.21,24.21,0,0,1,10.57,2.11c4.55,2,5.86,4.81,5.08,9.73C55.67,158.32,50.48,167.91,43.46,169.9Zm10.76-46.61a46.27,46.27,0,0,1-13.47,2.32,46.27,46.27,0,0,1-13.47-2.32c-6.53-2.14-7.66-5.3-9.17-12.35-3.59-16.74-3.17-47.31-.74-61.22a47.36,47.36,0,0,1,2.5-8.89c1.12-2.92,3.63-3.65,6-1.62A17.43,17.43,0,0,1,30.14,45c2.48,5.42,3.23,11.3,3.6,17.19a137.47,137.47,0,0,1-8,55.08c-.54,1.53-.25,2.29,1.11,2.89A36.2,36.2,0,0,0,40.7,123h.09a36.12,36.12,0,0,0,13.81-2.89c1.36-.6,1.66-1.36,1.11-2.89a137.46,137.46,0,0,1-8-55.08c.37-5.89,1.12-11.77,3.6-17.19a17.29,17.29,0,0,1,4.28-5.77c2.36-2,4.87-1.3,6,1.62a47.36,47.36,0,0,1,2.5,8.89c2.43,13.91,2.84,44.48-.74,61.22C61.88,118,60.75,121.15,54.22,123.29Z"/><path class="cls-11" d="M117.51,187,112,188.69a.44.44,0,0,1-.16,0,.57.57,0,0,1-.55-.39.59.59,0,0,1,.38-.72l5.52-1.72-.39-1.42-5.57,1.74-.17,0a.57.57,0,0,1-.17-1.11l5.61-1.75-.39-1.42-5.66,1.76-.17,0a.57.57,0,0,1-.17-1.11l5.7-1.78c-2.45-9-4.72-17.53-4.78-18.5a34.32,34.32,0,0,1,.37-6.57c.37-2.85,11-36.15,11.57-37.85.17-.53-17.48-9.17-28.28-8.42-.43-.09-6.22,43.24-5.6,50.18.53,5.95,17.31,42.9,20.29,48.54.25.46.48.51.92.25a33.07,33.07,0,0,1,6.07-3.1c1.64-.54,3.24-1.19,4.86-1.79.81-.3.84-.35.58-1.15C121.64,201.84,119.7,194.91,117.51,187Z"/><path class="cls-11" d="M153.56,187l-5.49,1.72a.47.47,0,0,1-.17,0,.57.57,0,0,1-.54-.39.59.59,0,0,1,.38-.72l5.52-1.72-.39-1.42-5.58,1.74-.16,0a.57.57,0,0,1-.17-1.11l5.61-1.75-.39-1.42-5.66,1.76-.17,0a.57.57,0,0,1-.17-1.11l5.7-1.78c-2.45-9-4.72-17.53-4.78-18.5a34.32,34.32,0,0,1,.37-6.57c.37-2.85,11-36.15,11.57-37.85.17-.53-17.48-9.17-28.28-8.42-.43-.09-6.22,43.24-5.6,50.18.53,5.95,17.31,42.9,20.29,48.54.25.46.48.51.92.25a32.75,32.75,0,0,1,6.07-3.1c1.64-.54,3.24-1.19,4.86-1.79.81-.3.84-.35.58-1.15C157.69,201.84,155.75,194.91,153.56,187Z"/></g></g></svg>