<svg xmlns="http://www.w3.org/2000/svg" xmlns:xlink="http://www.w3.org/1999/xlink" viewBox="0 0 160 238"><defs><style>.cls-1{fill:none;}.cls-2{clip-path:url(#clip-path);}.cls-3{clip-path:url(#clip-path-2);}.cls-4{clip-path:url(#clip-path-3);}.cls-5{clip-path:url(#clip-path-4);}.cls-6{clip-path:url(#clip-path-5);}.cls-7{clip-path:url(#clip-path-6);}.cls-8{clip-path:url(#clip-path-7);}.cls-9{clip-path:url(#clip-path-8);}.cls-10{opacity:0.6;}.cls-11{fill:#fff;}</style><clipPath id="clip-path"><path class="cls-1" d="M-1302.9,1696.6h388.68a7.54,7.54,0,0,1,7.53,7.54,7.53,7.53,0,0,1-7.53,7.53H-1302.9a7.53,7.53,0,0,1-7.53-7.53A7.54,7.54,0,0,1-1302.9,1696.6Z"/></clipPath><clipPath id="clip-path-2"><path class="cls-1" d="M-592.33-644.51v12a6.55,6.55,0,0,0,4-6,6.54,6.54,0,0,0-4-6"/></clipPath><clipPath id="clip-path-3"><path class="cls-1" d="M-650.45-649.53h43.93a5.81,5.81,0,0,1,3.09.53,3.65,3.65,0,0,1,1.52,1.52,5.85,5.85,0,0,1,.54,3.1v11.79a5.85,5.85,0,0,1-.54,3.1,3.65,3.65,0,0,1-1.52,1.52,5.81,5.81,0,0,1-3.09.53h-43.93a5.88,5.88,0,0,1-3.1-.53,3.71,3.71,0,0,1-1.52-1.52,5.88,5.88,0,0,1-.53-3.1v-11.79a5.88,5.88,0,0,1,.53-3.1,3.71,3.71,0,0,1,1.52-1.52A5.88,5.88,0,0,1-650.45-649.53Z"/></clipPath><clipPath id="clip-path-4"><path class="cls-1" d="M-744-654.56h3a3,3,0,0,1,3,3v26.11a3,3,0,0,1-3,3h-3a3,3,0,0,1-3-3v-26.11A3,3,0,0,1-744-654.56Zm-14.06,7h3a3,3,0,0,1,3,3v19.08a3,3,0,0,1-3,3h-3a3,3,0,0,1-3-3v-19.08A3,3,0,0,1-758-647.52Zm-14.06,7h3a3,3,0,0,1,3,3v12.05a3,3,0,0,1-3,3h-3a3,3,0,0,1-3-3v-12.05A3,3,0,0,1-772.11-640.49Zm-14.06,6h3a3,3,0,0,1,3,3v6a3,3,0,0,1-3,3h-3a3,3,0,0,1-3-3v-6A3,3,0,0,1-786.17-634.47Zm93.09,5.67a.9.9,0,0,0,.28-.69,1,1,0,0,0-.31-.69,10.36,10.36,0,0,0-13.37,0,1,1,0,0,0-.31.69.94.94,0,0,0,.28.69l6,6.1a.91.91,0,0,0,.67.28,1,1,0,0,0,.67-.28Zm-6.71-8.41a14.85,14.85,0,0,1,10,3.84.94.94,0,0,0,1.31,0l3.49-3.53a.94.94,0,0,0,.29-.69,1,1,0,0,0-.3-.7,21.68,21.68,0,0,0-29.5,0,1,1,0,0,0-.3.7.94.94,0,0,0,.29.69l3.49,3.53a.94.94,0,0,0,1.31,0A14.85,14.85,0,0,1-699.79-637.21Zm0-11.47a26.13,26.13,0,0,1,18,7.18.92.92,0,0,0,1.31,0L-677-645a1,1,0,0,0,.28-.69.94.94,0,0,0-.29-.69,33,33,0,0,0-45.61,0,.94.94,0,0,0-.29.69,1,1,0,0,0,.28.69l3.5,3.52a.92.92,0,0,0,1.31,0A26.16,26.16,0,0,1-699.79-648.68Z"/></clipPath><clipPath id="clip-path-5"><path class="cls-1" d="M-2890.9,1696.6h388.68a7.54,7.54,0,0,1,7.53,7.54,7.53,7.53,0,0,1-7.53,7.53H-2890.9a7.53,7.53,0,0,1-7.53-7.53A7.54,7.54,0,0,1-2890.9,1696.6Z"/></clipPath><clipPath id="clip-path-6"><path class="cls-1" d="M-2180.33-644.51v12a6.55,6.55,0,0,0,4-6,6.54,6.54,0,0,0-4-6"/></clipPath><clipPath id="clip-path-7"><path class="cls-1" d="M-2238.45-649.53h43.93a5.81,5.81,0,0,1,3.09.53,3.65,3.65,0,0,1,1.52,1.52,5.85,5.85,0,0,1,.54,3.1v11.79a5.85,5.85,0,0,1-.54,3.1,3.65,3.65,0,0,1-1.52,1.52,5.81,5.81,0,0,1-3.09.53h-43.93a5.88,5.88,0,0,1-3.1-.53,3.71,3.71,0,0,1-1.52-1.52,5.88,5.88,0,0,1-.53-3.1v-11.79a5.88,5.88,0,0,1,.53-3.1,3.71,3.71,0,0,1,1.52-1.52A5.88,5.88,0,0,1-2238.45-649.53Z"/></clipPath><clipPath id="clip-path-8"><path class="cls-1" d="M-2332-654.56h3a3,3,0,0,1,3,3v26.11a3,3,0,0,1-3,3h-3a3,3,0,0,1-3-3v-26.11A3,3,0,0,1-2332-654.56Zm-14.06,7h3a3,3,0,0,1,3,3v19.08a3,3,0,0,1-3,3h-3a3,3,0,0,1-3-3v-19.08A3,3,0,0,1-2346-647.52Zm-14.06,7h3a3,3,0,0,1,3,3v12.05a3,3,0,0,1-3,3h-3a3,3,0,0,1-3-3v-12.05A3,3,0,0,1-2360.11-640.49Zm-14.06,6h3a3,3,0,0,1,3,3v6a3,3,0,0,1-3,3h-3a3,3,0,0,1-3-3v-6A3,3,0,0,1-2374.17-634.47Zm93.09,5.67a.9.9,0,0,0,.28-.69,1,1,0,0,0-.31-.69,10.36,10.36,0,0,0-13.37,0,1,1,0,0,0-.31.69.94.94,0,0,0,.28.69l6.05,6.1a.91.91,0,0,0,.67.28,1,1,0,0,0,.67-.28Zm-6.71-8.41a14.85,14.85,0,0,1,10,3.84.94.94,0,0,0,1.31,0l3.49-3.53a.94.94,0,0,0,.29-.69,1,1,0,0,0-.3-.7,21.68,21.68,0,0,0-29.5,0,1,1,0,0,0-.3.7.94.94,0,0,0,.29.69l3.49,3.53a.94.94,0,0,0,1.31,0A14.85,14.85,0,0,1-2287.79-637.21Zm0-11.47a26.13,26.13,0,0,1,18,7.18.92.92,0,0,0,1.31,0l3.5-3.52a1,1,0,0,0,.28-.69.94.94,0,0,0-.29-.69,33,33,0,0,0-45.61,0,.94.94,0,0,0-.29.69,1,1,0,0,0,.28.69l3.5,3.52a.92.92,0,0,0,1.31,0A26.16,26.16,0,0,1-2287.79-648.68Z"/></clipPath></defs><g id="Art"><g class="cls-10"><path class="cls-11" d="M90.75,214.53a68.75,68.75,0,0,1,25.78,0,.28.28,0,0,1,0,.54,62.41,62.41,0,0,1-25.79,0A.28.28,0,0,1,90.75,214.53Z"/><path class="cls-11" d="M47.94,214.53a68.75,68.75,0,0,1,25.78,0,.28.28,0,0,1,0,.54,62.41,62.41,0,0,1-25.79,0A.28.28,0,0,1,47.94,214.53Z"/><path class="cls-11" d="M97.24,155.66a5.39,5.39,0,0,0-3.07-5.57,22.45,22.45,0,0,0-11.81-2.77,22.43,22.43,0,0,0-11.81,2.77,5.4,5.4,0,0,0-3.08,5.57c.65,6.94,7,15.68,12.24,17.6.48-3.71,2.15-11.09,2.58-11.64,0,0,.12,0,.13,0,.43.55,2.11,7.93,2.59,11.64C90.25,171.34,96.6,162.6,97.24,155.66Z"/><path class="cls-11" d="M88.61,205c.28,2.44.55,4.89.83,7.36a57.06,57.06,0,0,1,28.2.12c.14-.85.42-3.6.75-7.38C105.45,200.33,92.28,203.83,88.61,205Z"/><path class="cls-11" d="M85.31,175.43c1,9,2,17.87,3,26.88,4.47-1.39,17.25-4.48,30.31.08.89-10.6,2-26.6,1.93-34.55,0-7-1.9-13.59-3.5-20.25a83.13,83.13,0,0,1-1.65-28.14c1.1-10.82,1.26-21.75,1.42-32.63.22-15.84-2.54-50.47-4.57-59.41-1.1-4.88-8.43-7-11-5.25-2.79,1.89-5.31,4.17-8,6.24-2.86,2.23-7,3.2-11,3.19s-8.1-1-11-3.19c-2.65-2.07-5.19-4.3-7.95-6.24-2.05-1.44-9.23.54-11,5.25C49.24,36,47.67,71,47.9,86.82c.15,10.88.32,21.81,1.41,32.63a83.13,83.13,0,0,1-1.65,28.14c-1.6,6.66-3.45,13.28-3.5,20.25-.09,11.82,2.4,41.44,2.91,44.64a57.1,57.1,0,0,1,28.21-.12c1.39-12.48,2.75-24.64,4.12-36.93-7.65-2.17-13.29-12.61-14.09-17.7-.85-5.35.58-8.38,5.54-10.6a26.4,26.4,0,0,1,11.51-2.3,26.4,26.4,0,0,1,11.51,2.3c5,2.22,6.38,5.25,5.54,10.6C98.6,162.82,93,173.26,85.31,175.43ZM97,124.67a50.11,50.11,0,0,1-14.67,2.52,50.18,50.18,0,0,1-14.68-2.52c-7.1-2.34-8.34-5.77-10-13.46C53.79,93,54.24,59.69,56.89,44.54a52.32,52.32,0,0,1,2.72-9.68c1.23-3.18,4-4,6.53-1.77a18.77,18.77,0,0,1,4.66,6.28c2.7,5.91,3.52,12.31,3.93,18.73a149.88,149.88,0,0,1-8.67,60c-.59,1.66-.27,2.49,1.21,3.15a39.52,39.52,0,0,0,15,3.14h.1a39.52,39.52,0,0,0,15-3.14c1.48-.66,1.8-1.49,1.21-3.15A149.7,149.7,0,0,1,90,58.1c.4-6.42,1.22-12.82,3.93-18.73a18.74,18.74,0,0,1,4.65-6.28c2.58-2.22,5.3-1.41,6.53,1.77a51.56,51.56,0,0,1,2.72,9.68c2.65,15.15,3.1,48.44-.8,66.67C105.37,118.9,104.14,122.33,97,124.67Z"/></g></g></svg>