<svg xmlns="http://www.w3.org/2000/svg" xmlns:xlink="http://www.w3.org/1999/xlink" viewBox="0 0 160 238"><defs><style>.cls-1{fill:none;}.cls-2{clip-path:url(#clip-path);}.cls-3{clip-path:url(#clip-path-2);}.cls-4{clip-path:url(#clip-path-3);}.cls-5{clip-path:url(#clip-path-4);}.cls-6{clip-path:url(#clip-path-5);}.cls-7{clip-path:url(#clip-path-6);}.cls-8{clip-path:url(#clip-path-7);}.cls-9{clip-path:url(#clip-path-8);}.cls-10{opacity:0.6;}.cls-11{fill:#fff;}</style><clipPath id="clip-path"><path class="cls-1" d="M-1091.9,2172.6h388.68a7.54,7.54,0,0,1,7.53,7.54,7.53,7.53,0,0,1-7.53,7.53H-1091.9a7.53,7.53,0,0,1-7.53-7.53A7.54,7.54,0,0,1-1091.9,2172.6Z"/></clipPath><clipPath id="clip-path-2"><path class="cls-1" d="M-381.33-168.51v12a6.55,6.55,0,0,0,4-6,6.54,6.54,0,0,0-4-6"/></clipPath><clipPath id="clip-path-3"><path class="cls-1" d="M-439.45-173.53h43.93a5.81,5.81,0,0,1,3.09.53,3.65,3.65,0,0,1,1.52,1.52,5.85,5.85,0,0,1,.54,3.1v11.79a5.85,5.85,0,0,1-.54,3.1,3.65,3.65,0,0,1-1.52,1.52,5.81,5.81,0,0,1-3.09.53h-43.93a5.88,5.88,0,0,1-3.1-.53,3.71,3.71,0,0,1-1.52-1.52,5.88,5.88,0,0,1-.53-3.1v-11.79a5.88,5.88,0,0,1,.53-3.1,3.71,3.71,0,0,1,1.52-1.52A5.88,5.88,0,0,1-439.45-173.53Z"/></clipPath><clipPath id="clip-path-4"><path class="cls-1" d="M-533-178.56h3a3,3,0,0,1,3,3v26.11a3,3,0,0,1-3,3h-3a3,3,0,0,1-3-3v-26.11A3,3,0,0,1-533-178.56Zm-14.06,7h3a3,3,0,0,1,3,3v19.08a3,3,0,0,1-3,3h-3a3,3,0,0,1-3-3v-19.08A3,3,0,0,1-547-171.52Zm-14.06,7h3a3,3,0,0,1,3,3v12a3,3,0,0,1-3,3h-3a3,3,0,0,1-3-3v-12A3,3,0,0,1-561.11-164.49Zm-14.06,6h3a3,3,0,0,1,3,3v6a3,3,0,0,1-3,3h-3a3,3,0,0,1-3-3v-6A3,3,0,0,1-575.17-158.47Zm93.09,5.67a.9.9,0,0,0,.28-.69,1,1,0,0,0-.31-.69,10.36,10.36,0,0,0-13.37,0,1,1,0,0,0-.31.69.94.94,0,0,0,.28.69l6.05,6.1a.91.91,0,0,0,.67.28,1,1,0,0,0,.67-.28Zm-6.71-8.41a14.85,14.85,0,0,1,10,3.84.94.94,0,0,0,1.31,0l3.49-3.53a.94.94,0,0,0,.29-.69,1,1,0,0,0-.3-.7,21.68,21.68,0,0,0-29.5,0,1,1,0,0,0-.3.7.94.94,0,0,0,.29.69l3.49,3.53a.94.94,0,0,0,1.31,0A14.85,14.85,0,0,1-488.79-161.21Zm0-11.47a26.13,26.13,0,0,1,18,7.18.92.92,0,0,0,1.31,0L-466-169a1,1,0,0,0,.28-.69.94.94,0,0,0-.29-.69,33,33,0,0,0-45.61,0,.94.94,0,0,0-.29.69,1,1,0,0,0,.28.69l3.5,3.52a.92.92,0,0,0,1.31,0A26.16,26.16,0,0,1-488.79-172.68Z"/></clipPath><clipPath id="clip-path-5"><path class="cls-1" d="M-2679.9,2172.6h388.68a7.54,7.54,0,0,1,7.53,7.54,7.53,7.53,0,0,1-7.53,7.53H-2679.9a7.53,7.53,0,0,1-7.53-7.53A7.54,7.54,0,0,1-2679.9,2172.6Z"/></clipPath><clipPath id="clip-path-6"><path class="cls-1" d="M-1969.33-168.51v12a6.55,6.55,0,0,0,4-6,6.54,6.54,0,0,0-4-6"/></clipPath><clipPath id="clip-path-7"><path class="cls-1" d="M-2027.45-173.53h43.93a5.81,5.81,0,0,1,3.09.53,3.65,3.65,0,0,1,1.52,1.52,5.85,5.85,0,0,1,.54,3.1v11.79a5.85,5.85,0,0,1-.54,3.1,3.65,3.65,0,0,1-1.52,1.52,5.81,5.81,0,0,1-3.09.53h-43.93a5.88,5.88,0,0,1-3.1-.53,3.71,3.71,0,0,1-1.52-1.52,5.88,5.88,0,0,1-.53-3.1v-11.79a5.88,5.88,0,0,1,.53-3.1,3.71,3.71,0,0,1,1.52-1.52A5.88,5.88,0,0,1-2027.45-173.53Z"/></clipPath><clipPath id="clip-path-8"><path class="cls-1" d="M-2121-178.56h3a3,3,0,0,1,3,3v26.11a3,3,0,0,1-3,3h-3a3,3,0,0,1-3-3v-26.11A3,3,0,0,1-2121-178.56Zm-14.06,7h3a3,3,0,0,1,3,3v19.08a3,3,0,0,1-3,3h-3a3,3,0,0,1-3-3v-19.08A3,3,0,0,1-2135-171.52Zm-14.06,7h3a3,3,0,0,1,3,3v12a3,3,0,0,1-3,3h-3a3,3,0,0,1-3-3v-12A3,3,0,0,1-2149.11-164.49Zm-14.06,6h3a3,3,0,0,1,3,3v6a3,3,0,0,1-3,3h-3a3,3,0,0,1-3-3v-6A3,3,0,0,1-2163.17-158.47Zm93.09,5.67a.9.9,0,0,0,.28-.69,1,1,0,0,0-.31-.69,10.36,10.36,0,0,0-13.37,0,1,1,0,0,0-.31.69.94.94,0,0,0,.28.69l6.05,6.1a.91.91,0,0,0,.67.28,1,1,0,0,0,.67-.28Zm-6.71-8.41a14.85,14.85,0,0,1,10,3.84.94.94,0,0,0,1.31,0l3.49-3.53a.94.94,0,0,0,.29-.69,1,1,0,0,0-.3-.7,21.68,21.68,0,0,0-29.5,0,1,1,0,0,0-.3.7.94.94,0,0,0,.29.69l3.49,3.53a.94.94,0,0,0,1.31,0A14.85,14.85,0,0,1-2076.79-161.21Zm0-11.47a26.13,26.13,0,0,1,18,7.18.92.92,0,0,0,1.31,0l3.5-3.52a1,1,0,0,0,.28-.69.94.94,0,0,0-.29-.69,33,33,0,0,0-45.61,0,.94.94,0,0,0-.29.69,1,1,0,0,0,.28.69l3.5,3.52a.92.92,0,0,0,1.31,0A26.16,26.16,0,0,1-2076.79-172.68Z"/></clipPath></defs><g id="Art"><g class="cls-10"><path class="cls-11" d="M158.76,133.1C148.54,98,142.67,68,130,65.53c-8.71,15.25-6.51,39.85-6.51,39.85,10.47,18.2,16.37,26,14.38,36.44-1.25,6.74-3.49,18.2-4.74,26.43L150,172c2.24-7.73,5.73-20.44,8.72-32.16A10.35,10.35,0,0,0,158.76,133.1Z"/><path class="cls-11" d="M84.41,46.82a42.12,42.12,0,0,1,6-6.21H69.15a42.12,42.12,0,0,1,6,6.21Z"/><path class="cls-11" d="M82.8,58.22c11.57-3.89,12.55-9,12.63-9.75l-1.44-6a38.73,38.73,0,0,0-6.25,6.61A35.42,35.42,0,0,0,82.8,58.22Z"/><path class="cls-11" d="M76.74,58.21a35.49,35.49,0,0,0-4.93-9.13,38.73,38.73,0,0,0-6.25-6.61l-1.44,6C64.21,49.26,65.19,54.33,76.74,58.21Z"/><path class="cls-11" d="M77.35,49.93a37.43,37.43,0,0,1,2.43,4.35,35.93,35.93,0,0,1,2.42-4.35Z"/><path class="cls-11" d="M146.23,177.93a2,2,0,0,1-.48-.05l-12.37-2.73a2.21,2.21,0,1,1,1-4.32l12.38,2.73a2.21,2.21,0,0,1-.48,4.37Z"/><path class="cls-11" d="M108.32,64l15.51,6.3c.93-3.1,1.8-5.47,2.27-6.76-10-4.49-27.67-12.22-27.67-12.22C95.25,58.11,82.22,61.8,82.22,61.8v47.36L82,131.6v51.11c20.7-3.42,36.4-4.74,36.4-9.72,0-1.25-1.12-32.56-.58-41.58s2.83-26,2.83-26c-2-11.62.06-23.54,2.29-31.87a1.29,1.29,0,0,1-.19,0l-15.67-6.36A1.68,1.68,0,0,1,108.32,64ZM92.69,113.39a1.68,1.68,0,1,1-3.36,0v-22a1.68,1.68,0,1,1,3.36,0Z"/><path class="cls-11" d="M.85,133.1C11.08,98,17,68,29.66,65.53c8.71,15.25,6.51,39.85,6.51,39.85-10.47,18.2-16.37,26-14.37,36.44,1.24,6.74,3.49,18.2,4.73,26.43L9.58,172c-2.24-7.73-5.73-20.44-8.73-32.16A10.48,10.48,0,0,1,.85,133.1Z"/><path class="cls-11" d="M12.87,177.93a2.21,2.21,0,0,1-.47-4.37l12.38-2.73a2.21,2.21,0,1,1,.95,4.32l-12.38,2.73A2,2,0,0,1,12.87,177.93Z"/><path class="cls-11" d="M77.39,109.16V61.8s-13-3.69-16.2-10.48c0,0-17.7,7.73-27.68,12.22.47,1.27,1.31,3.57,2.22,6.57L50.79,64a1.68,1.68,0,1,1,1.26,3.11L36.66,73.36c2.25,8.34,4.39,20.33,2.34,32,0,0,2.28,17,2.82,26s-.58,40.33-.58,41.58c0,5,15.94,8,36.4,9.72V131.6Z"/><path class="cls-11" d="M43.59,180S59,195.87,80.41,195.87s36.81-16.58,36.81-16.58-23,7-37,6.82S43.59,180,43.59,180Z"/></g></g></svg>