<svg xmlns="http://www.w3.org/2000/svg" xmlns:xlink="http://www.w3.org/1999/xlink" viewBox="0 0 160 238"><defs><style>.cls-1{fill:none;}.cls-2{clip-path:url(#clip-path);}.cls-3{clip-path:url(#clip-path-2);}.cls-4{clip-path:url(#clip-path-3);}.cls-5{clip-path:url(#clip-path-4);}.cls-6{clip-path:url(#clip-path-5);}.cls-7{clip-path:url(#clip-path-6);}.cls-8{clip-path:url(#clip-path-7);}.cls-9{clip-path:url(#clip-path-8);}.cls-10{fill:#fff;fill-rule:evenodd;opacity:0.6;}</style><clipPath id="clip-path"><path class="cls-1" d="M-1091.9,1458.6h388.68a7.54,7.54,0,0,1,7.53,7.54,7.53,7.53,0,0,1-7.53,7.53H-1091.9a7.53,7.53,0,0,1-7.53-7.53A7.54,7.54,0,0,1-1091.9,1458.6Z"/></clipPath><clipPath id="clip-path-2"><path class="cls-1" d="M-381.33-882.51v12a6.55,6.55,0,0,0,4-6,6.54,6.54,0,0,0-4-6"/></clipPath><clipPath id="clip-path-3"><path class="cls-1" d="M-439.45-887.53h43.93a5.81,5.81,0,0,1,3.09.53,3.65,3.65,0,0,1,1.52,1.52,5.85,5.85,0,0,1,.54,3.1v11.79a5.85,5.85,0,0,1-.54,3.1,3.65,3.65,0,0,1-1.52,1.52,5.81,5.81,0,0,1-3.09.53h-43.93a5.88,5.88,0,0,1-3.1-.53,3.71,3.71,0,0,1-1.52-1.52,5.88,5.88,0,0,1-.53-3.1v-11.79a5.88,5.88,0,0,1,.53-3.1,3.71,3.71,0,0,1,1.52-1.52A5.88,5.88,0,0,1-439.45-887.53Z"/></clipPath><clipPath id="clip-path-4"><path class="cls-1" d="M-533-892.56h3a3,3,0,0,1,3,3v26.11a3,3,0,0,1-3,3h-3a3,3,0,0,1-3-3v-26.11A3,3,0,0,1-533-892.56Zm-14.06,7h3a3,3,0,0,1,3,3v19.08a3,3,0,0,1-3,3h-3a3,3,0,0,1-3-3v-19.08A3,3,0,0,1-547-885.52Zm-14.06,7h3a3,3,0,0,1,3,3v12.05a3,3,0,0,1-3,3h-3a3,3,0,0,1-3-3v-12.05A3,3,0,0,1-561.11-878.49Zm-14.06,6h3a3,3,0,0,1,3,3v6a3,3,0,0,1-3,3h-3a3,3,0,0,1-3-3v-6A3,3,0,0,1-575.17-872.47Zm93.09,5.67a.9.9,0,0,0,.28-.69,1,1,0,0,0-.31-.69,10.36,10.36,0,0,0-13.37,0,1,1,0,0,0-.31.69.94.94,0,0,0,.28.69l6.05,6.1a.91.91,0,0,0,.67.28,1,1,0,0,0,.67-.28Zm-6.71-8.41a14.85,14.85,0,0,1,10,3.84.94.94,0,0,0,1.31,0l3.49-3.53a.94.94,0,0,0,.29-.69,1,1,0,0,0-.3-.7,21.68,21.68,0,0,0-29.5,0,1,1,0,0,0-.3.7.94.94,0,0,0,.29.69l3.49,3.53a.94.94,0,0,0,1.31,0A14.85,14.85,0,0,1-488.79-875.21Zm0-11.47a26.13,26.13,0,0,1,18,7.18.92.92,0,0,0,1.31,0L-466-883a1,1,0,0,0,.28-.69.94.94,0,0,0-.29-.69,33,33,0,0,0-45.61,0,.94.94,0,0,0-.29.69,1,1,0,0,0,.28.69l3.5,3.52a.92.92,0,0,0,1.31,0A26.16,26.16,0,0,1-488.79-886.68Z"/></clipPath><clipPath id="clip-path-5"><path class="cls-1" d="M-2679.9,1458.6h388.68a7.54,7.54,0,0,1,7.53,7.54,7.53,7.53,0,0,1-7.53,7.53H-2679.9a7.53,7.53,0,0,1-7.53-7.53A7.54,7.54,0,0,1-2679.9,1458.6Z"/></clipPath><clipPath id="clip-path-6"><path class="cls-1" d="M-1969.33-882.51v12a6.55,6.55,0,0,0,4-6,6.54,6.54,0,0,0-4-6"/></clipPath><clipPath id="clip-path-7"><path class="cls-1" d="M-2027.45-887.53h43.93a5.81,5.81,0,0,1,3.09.53,3.65,3.65,0,0,1,1.52,1.52,5.85,5.85,0,0,1,.54,3.1v11.79a5.85,5.85,0,0,1-.54,3.1,3.65,3.65,0,0,1-1.52,1.52,5.81,5.81,0,0,1-3.09.53h-43.93a5.88,5.88,0,0,1-3.1-.53,3.71,3.71,0,0,1-1.52-1.52,5.88,5.88,0,0,1-.53-3.1v-11.79a5.88,5.88,0,0,1,.53-3.1,3.71,3.71,0,0,1,1.52-1.52A5.88,5.88,0,0,1-2027.45-887.53Z"/></clipPath><clipPath id="clip-path-8"><path class="cls-1" d="M-2121-892.56h3a3,3,0,0,1,3,3v26.11a3,3,0,0,1-3,3h-3a3,3,0,0,1-3-3v-26.11A3,3,0,0,1-2121-892.56Zm-14.06,7h3a3,3,0,0,1,3,3v19.08a3,3,0,0,1-3,3h-3a3,3,0,0,1-3-3v-19.08A3,3,0,0,1-2135-885.52Zm-14.06,7h3a3,3,0,0,1,3,3v12.05a3,3,0,0,1-3,3h-3a3,3,0,0,1-3-3v-12.05A3,3,0,0,1-2149.11-878.49Zm-14.06,6h3a3,3,0,0,1,3,3v6a3,3,0,0,1-3,3h-3a3,3,0,0,1-3-3v-6A3,3,0,0,1-2163.17-872.47Zm93.09,5.67a.9.9,0,0,0,.28-.69,1,1,0,0,0-.31-.69,10.36,10.36,0,0,0-13.37,0,1,1,0,0,0-.31.69.94.94,0,0,0,.28.69l6.05,6.1a.91.91,0,0,0,.67.28,1,1,0,0,0,.67-.28Zm-6.71-8.41a14.85,14.85,0,0,1,10,3.84.94.94,0,0,0,1.31,0l3.49-3.53a.94.94,0,0,0,.29-.69,1,1,0,0,0-.3-.7,21.68,21.68,0,0,0-29.5,0,1,1,0,0,0-.3.7.94.94,0,0,0,.29.69l3.49,3.53a.94.94,0,0,0,1.31,0A14.85,14.85,0,0,1-2076.79-875.21Zm0-11.47a26.13,26.13,0,0,1,18,7.18.92.92,0,0,0,1.31,0l3.5-3.52a1,1,0,0,0,.28-.69.94.94,0,0,0-.29-.69,33,33,0,0,0-45.61,0,.94.94,0,0,0-.29.69,1,1,0,0,0,.28.69l3.5,3.52a.92.92,0,0,0,1.31,0A26.16,26.16,0,0,1-2076.79-886.68Z"/></clipPath></defs><g id="Art"><path class="cls-10" d="M141.9,122.43c-1.08-9.9-14.13-55.53-15.06-56.36-3.19-2.84-22.37-10.34-28.76-12.28H98a1.55,1.55,0,0,0-.68-.16H62.23a1.59,1.59,0,0,0-.69.16h0C55.15,55.73,36,63.23,32.78,66.07c-.93.83-14,46.46-15.06,56.36s6.66,46.14,6.84,46.45c1.54,2.72,4.46.42,13.68-1.8,1.32-.31-4.24-22.66-2.52-42.31C37.16,108.41,46,94,46.39,94.7c4.28,6.68-.87,78.35-1.58,87.88a1,1,0,0,0,1,1h68a1,1,0,0,0,1-1c-.7-9.53-5.85-81.2-1.58-87.88.42-.66,9.24,13.71,10.67,30.07,1.73,19.65-3.83,42-2.52,42.31,9.22,2.22,12.15,4.52,13.69,1.8C135.24,168.57,143,132.33,141.9,122.43ZM82,64.21v6.15a1.63,1.63,0,1,1-3.25,0V64.29c-6-.3-11.9-2.77-14.8-7.42H95.7C93,61.25,87.62,63.7,82,64.21Z"/></g></svg>