<svg xmlns="http://www.w3.org/2000/svg" xmlns:xlink="http://www.w3.org/1999/xlink" viewBox="0 0 160 238"><defs><style>.cls-1{fill:none;}.cls-2{clip-path:url(#clip-path);}.cls-3{clip-path:url(#clip-path-2);}.cls-4{clip-path:url(#clip-path-3);}.cls-5{clip-path:url(#clip-path-4);}.cls-6{clip-path:url(#clip-path-5);}.cls-7{clip-path:url(#clip-path-6);}.cls-8{clip-path:url(#clip-path-7);}.cls-9{clip-path:url(#clip-path-8);}.cls-10{opacity:0.6;}.cls-11{fill:#fff;}</style><clipPath id="clip-path"><path class="cls-1" d="M-1513.9,2172.6h388.68a7.54,7.54,0,0,1,7.53,7.54,7.53,7.53,0,0,1-7.53,7.53H-1513.9a7.53,7.53,0,0,1-7.53-7.53A7.54,7.54,0,0,1-1513.9,2172.6Z"/></clipPath><clipPath id="clip-path-2"><path class="cls-1" d="M-803.33-168.51v12a6.55,6.55,0,0,0,4-6,6.54,6.54,0,0,0-4-6"/></clipPath><clipPath id="clip-path-3"><path class="cls-1" d="M-861.45-173.53h43.93a5.81,5.81,0,0,1,3.09.53,3.65,3.65,0,0,1,1.52,1.52,5.85,5.85,0,0,1,.54,3.1v11.79a5.85,5.85,0,0,1-.54,3.1,3.65,3.65,0,0,1-1.52,1.52,5.81,5.81,0,0,1-3.09.53h-43.93a5.88,5.88,0,0,1-3.1-.53,3.71,3.71,0,0,1-1.52-1.52,5.88,5.88,0,0,1-.53-3.1v-11.79a5.88,5.88,0,0,1,.53-3.1,3.71,3.71,0,0,1,1.52-1.52A5.88,5.88,0,0,1-861.45-173.53Z"/></clipPath><clipPath id="clip-path-4"><path class="cls-1" d="M-955-178.56h3a3,3,0,0,1,3,3v26.11a3,3,0,0,1-3,3h-3a3,3,0,0,1-3-3v-26.11A3,3,0,0,1-955-178.56Zm-14.06,7h3a3,3,0,0,1,3,3v19.08a3,3,0,0,1-3,3h-3a3,3,0,0,1-3-3v-19.08A3,3,0,0,1-969-171.52Zm-14.06,7h3a3,3,0,0,1,3,3v12a3,3,0,0,1-3,3h-3a3,3,0,0,1-3-3v-12A3,3,0,0,1-983.11-164.49Zm-14.06,6h3a3,3,0,0,1,3,3v6a3,3,0,0,1-3,3h-3a3,3,0,0,1-3-3v-6A3,3,0,0,1-997.17-158.47Zm93.09,5.67a.9.9,0,0,0,.28-.69,1,1,0,0,0-.31-.69,10.36,10.36,0,0,0-13.37,0,1,1,0,0,0-.31.69.94.94,0,0,0,.28.69l6,6.1a.91.91,0,0,0,.67.28,1,1,0,0,0,.67-.28Zm-6.71-8.41a14.85,14.85,0,0,1,10,3.84.94.94,0,0,0,1.31,0l3.49-3.53a.94.94,0,0,0,.29-.69,1,1,0,0,0-.3-.7,21.68,21.68,0,0,0-29.5,0,1,1,0,0,0-.3.7.94.94,0,0,0,.29.69l3.49,3.53a.94.94,0,0,0,1.31,0A14.85,14.85,0,0,1-910.79-161.21Zm0-11.47a26.13,26.13,0,0,1,18,7.18.92.92,0,0,0,1.31,0L-888-169a1,1,0,0,0,.28-.69.94.94,0,0,0-.29-.69,33,33,0,0,0-45.61,0,.94.94,0,0,0-.29.69,1,1,0,0,0,.28.69l3.5,3.52a.92.92,0,0,0,1.31,0A26.16,26.16,0,0,1-910.79-172.68Z"/></clipPath><clipPath id="clip-path-5"><path class="cls-1" d="M-3101.9,2172.6h388.68a7.54,7.54,0,0,1,7.53,7.54,7.53,7.53,0,0,1-7.53,7.53H-3101.9a7.53,7.53,0,0,1-7.53-7.53A7.54,7.54,0,0,1-3101.9,2172.6Z"/></clipPath><clipPath id="clip-path-6"><path class="cls-1" d="M-2391.33-168.51v12a6.55,6.55,0,0,0,4-6,6.54,6.54,0,0,0-4-6"/></clipPath><clipPath id="clip-path-7"><path class="cls-1" d="M-2449.45-173.53h43.93a5.81,5.81,0,0,1,3.09.53,3.65,3.65,0,0,1,1.52,1.52,5.85,5.85,0,0,1,.54,3.1v11.79a5.85,5.85,0,0,1-.54,3.1,3.65,3.65,0,0,1-1.52,1.52,5.81,5.81,0,0,1-3.09.53h-43.93a5.88,5.88,0,0,1-3.1-.53,3.71,3.71,0,0,1-1.52-1.52,5.88,5.88,0,0,1-.53-3.1v-11.79a5.88,5.88,0,0,1,.53-3.1,3.71,3.71,0,0,1,1.52-1.52A5.88,5.88,0,0,1-2449.45-173.53Z"/></clipPath><clipPath id="clip-path-8"><path class="cls-1" d="M-2543-178.56h3a3,3,0,0,1,3,3v26.11a3,3,0,0,1-3,3h-3a3,3,0,0,1-3-3v-26.11A3,3,0,0,1-2543-178.56Zm-14.06,7h3a3,3,0,0,1,3,3v19.08a3,3,0,0,1-3,3h-3a3,3,0,0,1-3-3v-19.08A3,3,0,0,1-2557-171.52Zm-14.06,7h3a3,3,0,0,1,3,3v12a3,3,0,0,1-3,3h-3a3,3,0,0,1-3-3v-12A3,3,0,0,1-2571.11-164.49Zm-14.06,6h3a3,3,0,0,1,3,3v6a3,3,0,0,1-3,3h-3a3,3,0,0,1-3-3v-6A3,3,0,0,1-2585.17-158.47Zm93.09,5.67a.9.9,0,0,0,.28-.69,1,1,0,0,0-.31-.69,10.36,10.36,0,0,0-13.37,0,1,1,0,0,0-.31.69.94.94,0,0,0,.28.69l6.05,6.1a.91.91,0,0,0,.67.28,1,1,0,0,0,.67-.28Zm-6.71-8.41a14.85,14.85,0,0,1,10,3.84.94.94,0,0,0,1.31,0l3.49-3.53a.94.94,0,0,0,.29-.69,1,1,0,0,0-.3-.7,21.68,21.68,0,0,0-29.5,0,1,1,0,0,0-.3.7.94.94,0,0,0,.29.69l3.49,3.53a.94.94,0,0,0,1.31,0A14.85,14.85,0,0,1-2498.79-161.21Zm0-11.47a26.13,26.13,0,0,1,18,7.18.92.92,0,0,0,1.31,0l3.5-3.52a1,1,0,0,0,.28-.69.94.94,0,0,0-.29-.69,33,33,0,0,0-45.61,0,.94.94,0,0,0-.29.69,1,1,0,0,0,.28.69l3.5,3.52a.92.92,0,0,0,1.31,0A26.16,26.16,0,0,1-2498.79-172.68Z"/></clipPath></defs><g id="Layer_1" data-name="Layer 1"><g class="cls-10"><path class="cls-11" d="M33.88,178.54H45.11a72.36,72.36,0,0,1-4.06-13.07C39.34,169.7,36.87,174.89,33.88,178.54Z"/><path class="cls-11" d="M86.39,99.7c4.16-5.67-2.62-12.33-10.18-7.85-3.71,2.2-9.69,11.31-16.89,15.61-2.35,1.42-4,.29-3.67-2.43,2-15.73,1.76-49.38,1.54-54.28-.33-7.15-8-8.94-9.45-2.86-1.11,4.82-3.44,27.2-4.2,41.46a.38.38,0,0,1-.75,0c-1.67-17.6-1.93-37.46-3-44.32C39,39.88,32.21,39.1,31,43.39c-1.78,6.07-.6,31.88-2,46.33a.37.37,0,0,1-.28.28.35.35,0,0,1-.42-.28c-1.59-14.24-1.69-38.85-2.15-43.08-.65-6-7.56-7-8.83-.42-.93,4.89-2.1,31.67-1.75,44-.25.77-1.38.91-1.56-.31-.75-10.84-2.17-23.64-2.49-29.1-.3-5-7.31-6.25-8.36-.62-1.12,6-1.37,28.9-.81,42.07.22,5.17,1.19,17.6,1.93,22.79,1.29,9,.75,40.58.54,50.51v.06a2.93,2.93,0,0,0,3,2.94H27.84c4.62-2.55,9.67-14.32,11.81-21.31a2.09,2.09,0,0,1,2.09-1.45,2.05,2.05,0,0,1,1.89,1.7c1.6,9.15,4.16,17.92,6,21.06h2.06a2.94,2.94,0,0,0,2.87-3c-.16-6.85-.76-20.29-.08-23.51C58.57,132.71,70.83,120.91,86.39,99.7Z"/><path class="cls-11" d="M129.12,57.93H117.68a70.85,70.85,0,0,1,4.14,13.23C123.55,66.88,126.07,61.59,129.12,57.93Z"/><path class="cls-11" d="M154.71,134.23c-.22-5.16-1.19-17.59-1.94-22.78-1.28-9-.74-40.58-.53-50.51v-.07a3,3,0,0,0-3-2.94h-14c-5.27,2.51-10.5,16.34-12.07,21.47a2,2,0,0,1-2,1.45h-.13a2.05,2.05,0,0,1-1.89-1.7c-1.63-9.31-4.25-18.21-6.13-21.22h-7.85a3,3,0,0,0-2.87,3c.17,6.85.77,20.28.09,23.51-4.06,19.3-16.32,31.11-31.88,52.32-4.16,5.67,2.61,12.33,10.18,7.84,3.7-2.19,9.69-11.3,16.88-15.61,2.36-1.41,4-.29,3.68,2.44-2,15.73-1.77,49.37-1.54,54.27.32,7.15,8,8.95,9.45,2.87,1.11-4.82,3.44-27.2,4.2-41.47a.38.38,0,0,1,.75,0c1.67,17.6,1.92,37.45,3,44.32.79,5.13,7.6,5.91,8.86,1.62,1.77-6.07.6-31.89,2-46.33a.34.34,0,0,1,.27-.28.35.35,0,0,1,.42.27c1.59,14.24,1.7,38.86,2.15,43.09.66,6,7.57,7,8.83.42.94-4.9,2.11-31.67,1.75-44,.26-.77,1.38-.91,1.57.3.75,10.84,2.17,23.65,2.49,29.1.3,5,7.31,6.25,8.36.63C155,170.36,155.27,147.4,154.71,134.23Z"/></g></g></svg>