<svg xmlns="http://www.w3.org/2000/svg" xmlns:xlink="http://www.w3.org/1999/xlink" viewBox="0 0 160 238"><defs><style>.cls-1{fill:none;}.cls-2{clip-path:url(#clip-path);}.cls-3{clip-path:url(#clip-path-2);}.cls-4{clip-path:url(#clip-path-3);}.cls-5{clip-path:url(#clip-path-4);}.cls-6{clip-path:url(#clip-path-5);}.cls-7{clip-path:url(#clip-path-6);}.cls-8{clip-path:url(#clip-path-7);}.cls-9{clip-path:url(#clip-path-8);}.cls-10{fill:#fff;fill-rule:evenodd;opacity:0.6;}</style><clipPath id="clip-path"><path class="cls-1" d="M-1091.9,1220.6h388.68a7.54,7.54,0,0,1,7.53,7.54,7.53,7.53,0,0,1-7.53,7.53H-1091.9a7.53,7.53,0,0,1-7.53-7.53A7.54,7.54,0,0,1-1091.9,1220.6Z"/></clipPath><clipPath id="clip-path-2"><path class="cls-1" d="M-381.33-1120.51v12a6.55,6.55,0,0,0,4-6,6.54,6.54,0,0,0-4-6"/></clipPath><clipPath id="clip-path-3"><path class="cls-1" d="M-439.45-1125.53h43.93a5.81,5.81,0,0,1,3.09.53,3.65,3.65,0,0,1,1.52,1.52,5.85,5.85,0,0,1,.54,3.1v11.79a5.85,5.85,0,0,1-.54,3.1,3.65,3.65,0,0,1-1.52,1.52,5.81,5.81,0,0,1-3.09.53h-43.93a5.88,5.88,0,0,1-3.1-.53,3.71,3.71,0,0,1-1.52-1.52,5.88,5.88,0,0,1-.53-3.1v-11.79a5.88,5.88,0,0,1,.53-3.1,3.71,3.71,0,0,1,1.52-1.52A5.88,5.88,0,0,1-439.45-1125.53Z"/></clipPath><clipPath id="clip-path-4"><path class="cls-1" d="M-533-1130.56h3a3,3,0,0,1,3,3v26.11a3,3,0,0,1-3,3h-3a3,3,0,0,1-3-3v-26.11A3,3,0,0,1-533-1130.56Zm-14.06,7h3a3,3,0,0,1,3,3v19.08a3,3,0,0,1-3,3h-3a3,3,0,0,1-3-3v-19.08A3,3,0,0,1-547-1123.52Zm-14.06,7h3a3,3,0,0,1,3,3v12a3,3,0,0,1-3,3h-3a3,3,0,0,1-3-3v-12A3,3,0,0,1-561.11-1116.49Zm-14.06,6h3a3,3,0,0,1,3,3v6a3,3,0,0,1-3,3h-3a3,3,0,0,1-3-3v-6A3,3,0,0,1-575.17-1110.47Zm93.09,5.67a.9.9,0,0,0,.28-.69,1,1,0,0,0-.31-.69,10.36,10.36,0,0,0-13.37,0,1,1,0,0,0-.31.69.94.94,0,0,0,.28.69l6.05,6.1a.91.91,0,0,0,.67.28,1,1,0,0,0,.67-.28Zm-6.71-8.41a14.85,14.85,0,0,1,10,3.84.94.94,0,0,0,1.31,0l3.49-3.53a.94.94,0,0,0,.29-.69,1,1,0,0,0-.3-.7,21.68,21.68,0,0,0-29.5,0,1,1,0,0,0-.3.7.94.94,0,0,0,.29.69l3.49,3.53a.94.94,0,0,0,1.31,0A14.85,14.85,0,0,1-488.79-1113.21Zm0-11.47a26.13,26.13,0,0,1,18,7.18.92.92,0,0,0,1.31,0l3.5-3.52a1,1,0,0,0,.28-.69.94.94,0,0,0-.29-.69,33,33,0,0,0-45.61,0,.94.94,0,0,0-.29.69,1,1,0,0,0,.28.69l3.5,3.52a.92.92,0,0,0,1.31,0A26.16,26.16,0,0,1-488.79-1124.68Z"/></clipPath><clipPath id="clip-path-5"><path class="cls-1" d="M-2679.9,1220.6h388.68a7.54,7.54,0,0,1,7.53,7.54,7.53,7.53,0,0,1-7.53,7.53H-2679.9a7.53,7.53,0,0,1-7.53-7.53A7.54,7.54,0,0,1-2679.9,1220.6Z"/></clipPath><clipPath id="clip-path-6"><path class="cls-1" d="M-1969.33-1120.51v12a6.55,6.55,0,0,0,4-6,6.54,6.54,0,0,0-4-6"/></clipPath><clipPath id="clip-path-7"><path class="cls-1" d="M-2027.45-1125.53h43.93a5.81,5.81,0,0,1,3.09.53,3.65,3.65,0,0,1,1.52,1.52,5.85,5.85,0,0,1,.54,3.1v11.79a5.85,5.85,0,0,1-.54,3.1,3.65,3.65,0,0,1-1.52,1.52,5.81,5.81,0,0,1-3.09.53h-43.93a5.88,5.88,0,0,1-3.1-.53,3.71,3.71,0,0,1-1.52-1.52,5.88,5.88,0,0,1-.53-3.1v-11.79a5.88,5.88,0,0,1,.53-3.1,3.71,3.71,0,0,1,1.52-1.52A5.88,5.88,0,0,1-2027.45-1125.53Z"/></clipPath><clipPath id="clip-path-8"><path class="cls-1" d="M-2121-1130.56h3a3,3,0,0,1,3,3v26.11a3,3,0,0,1-3,3h-3a3,3,0,0,1-3-3v-26.11A3,3,0,0,1-2121-1130.56Zm-14.06,7h3a3,3,0,0,1,3,3v19.08a3,3,0,0,1-3,3h-3a3,3,0,0,1-3-3v-19.08A3,3,0,0,1-2135-1123.52Zm-14.06,7h3a3,3,0,0,1,3,3v12a3,3,0,0,1-3,3h-3a3,3,0,0,1-3-3v-12A3,3,0,0,1-2149.11-1116.49Zm-14.06,6h3a3,3,0,0,1,3,3v6a3,3,0,0,1-3,3h-3a3,3,0,0,1-3-3v-6A3,3,0,0,1-2163.17-1110.47Zm93.09,5.67a.9.9,0,0,0,.28-.69,1,1,0,0,0-.31-.69,10.36,10.36,0,0,0-13.37,0,1,1,0,0,0-.31.69.94.94,0,0,0,.28.69l6.05,6.1a.91.91,0,0,0,.67.28,1,1,0,0,0,.67-.28Zm-6.71-8.41a14.85,14.85,0,0,1,10,3.84.94.94,0,0,0,1.31,0l3.49-3.53a.94.94,0,0,0,.29-.69,1,1,0,0,0-.3-.7,21.68,21.68,0,0,0-29.5,0,1,1,0,0,0-.3.7.94.94,0,0,0,.29.69l3.49,3.53a.94.94,0,0,0,1.31,0A14.85,14.85,0,0,1-2076.79-1113.21Zm0-11.47a26.13,26.13,0,0,1,18,7.18.92.92,0,0,0,1.31,0l3.5-3.52a1,1,0,0,0,.28-.69.94.94,0,0,0-.29-.69,33,33,0,0,0-45.61,0,.94.94,0,0,0-.29.69,1,1,0,0,0,.28.69l3.5,3.52a.92.92,0,0,0,1.31,0A26.16,26.16,0,0,1-2076.79-1124.68Z"/></clipPath></defs><g id="Layer_1" data-name="Layer 1"><path class="cls-10" d="M126.55,66.58c-3.19-2.83-22.37-10.34-28.75-12.27a5.64,5.64,0,0,0-1-.17H62.11a6.53,6.53,0,0,0-1.1.17c-6.38,1.93-25.56,9.44-28.75,12.27-.93.83-8.45,19.21-13.94,27.08a.93.93,0,0,0-.07,1c1.54,2.71,10.83,13,20,10.82,2.41-.58,6.65-11.71,7.57-10.27,4.28,6.68-.87,78.35-1.58,87.88a1,1,0,0,0,1,1h71.37a1,1,0,0,0,1-1.17c-4-20.53-4.44-75.62-4.48-88.53a1,1,0,0,1,1.76-.6c2.72,3.71,4,7.49,5.59,9,5.36,5.22,21.42-8.07,21-8.75C136.61,86.57,127.5,67.43,126.55,66.58Zm-45.46-1.8v6.1a1.63,1.63,0,0,1-3.25,0V64.79c-5.92-.37-11.61-2.84-14.45-7.4h32C92.6,61.92,87,64.38,81.09,64.78Z"/></g></svg>