<svg xmlns="http://www.w3.org/2000/svg" xmlns:xlink="http://www.w3.org/1999/xlink" viewBox="0 0 160 238"><defs><style>.cls-1{fill:none;}.cls-2{clip-path:url(#clip-path);}.cls-3{clip-path:url(#clip-path-2);}.cls-4{clip-path:url(#clip-path-3);}.cls-5{clip-path:url(#clip-path-4);}.cls-6{clip-path:url(#clip-path-5);}.cls-7{clip-path:url(#clip-path-6);}.cls-8{clip-path:url(#clip-path-7);}.cls-9{clip-path:url(#clip-path-8);}.cls-10{opacity:0.6;}.cls-11{fill:#fff;}</style><clipPath id="clip-path"><path class="cls-1" d="M-1302.9,2172.6h388.68a7.54,7.54,0,0,1,7.53,7.54,7.53,7.53,0,0,1-7.53,7.53H-1302.9a7.53,7.53,0,0,1-7.53-7.53A7.54,7.54,0,0,1-1302.9,2172.6Z"/></clipPath><clipPath id="clip-path-2"><path class="cls-1" d="M-592.33-168.51v12a6.55,6.55,0,0,0,4-6,6.54,6.54,0,0,0-4-6"/></clipPath><clipPath id="clip-path-3"><path class="cls-1" d="M-650.45-173.53h43.93a5.81,5.81,0,0,1,3.09.53,3.65,3.65,0,0,1,1.52,1.52,5.85,5.85,0,0,1,.54,3.1v11.79a5.85,5.85,0,0,1-.54,3.1,3.65,3.65,0,0,1-1.52,1.52,5.81,5.81,0,0,1-3.09.53h-43.93a5.88,5.88,0,0,1-3.1-.53,3.71,3.71,0,0,1-1.52-1.52,5.88,5.88,0,0,1-.53-3.1v-11.79a5.88,5.88,0,0,1,.53-3.1,3.71,3.71,0,0,1,1.52-1.52A5.88,5.88,0,0,1-650.45-173.53Z"/></clipPath><clipPath id="clip-path-4"><path class="cls-1" d="M-744-178.56h3a3,3,0,0,1,3,3v26.11a3,3,0,0,1-3,3h-3a3,3,0,0,1-3-3v-26.11A3,3,0,0,1-744-178.56Zm-14.06,7h3a3,3,0,0,1,3,3v19.08a3,3,0,0,1-3,3h-3a3,3,0,0,1-3-3v-19.08A3,3,0,0,1-758-171.52Zm-14.06,7h3a3,3,0,0,1,3,3v12a3,3,0,0,1-3,3h-3a3,3,0,0,1-3-3v-12A3,3,0,0,1-772.11-164.49Zm-14.06,6h3a3,3,0,0,1,3,3v6a3,3,0,0,1-3,3h-3a3,3,0,0,1-3-3v-6A3,3,0,0,1-786.17-158.47Zm93.09,5.67a.9.9,0,0,0,.28-.69,1,1,0,0,0-.31-.69,10.36,10.36,0,0,0-13.37,0,1,1,0,0,0-.31.69.94.94,0,0,0,.28.69l6,6.1a.91.91,0,0,0,.67.28,1,1,0,0,0,.67-.28Zm-6.71-8.41a14.85,14.85,0,0,1,10,3.84.94.94,0,0,0,1.31,0l3.49-3.53a.94.94,0,0,0,.29-.69,1,1,0,0,0-.3-.7,21.68,21.68,0,0,0-29.5,0,1,1,0,0,0-.3.7.94.94,0,0,0,.29.69l3.49,3.53a.94.94,0,0,0,1.31,0A14.85,14.85,0,0,1-699.79-161.21Zm0-11.47a26.13,26.13,0,0,1,18,7.18.92.92,0,0,0,1.31,0L-677-169a1,1,0,0,0,.28-.69.94.94,0,0,0-.29-.69,33,33,0,0,0-45.61,0,.94.94,0,0,0-.29.69,1,1,0,0,0,.28.69l3.5,3.52a.92.92,0,0,0,1.31,0A26.16,26.16,0,0,1-699.79-172.68Z"/></clipPath><clipPath id="clip-path-5"><path class="cls-1" d="M-2890.9,2172.6h388.68a7.54,7.54,0,0,1,7.53,7.54,7.53,7.53,0,0,1-7.53,7.53H-2890.9a7.53,7.53,0,0,1-7.53-7.53A7.54,7.54,0,0,1-2890.9,2172.6Z"/></clipPath><clipPath id="clip-path-6"><path class="cls-1" d="M-2180.33-168.51v12a6.55,6.55,0,0,0,4-6,6.54,6.54,0,0,0-4-6"/></clipPath><clipPath id="clip-path-7"><path class="cls-1" d="M-2238.45-173.53h43.93a5.81,5.81,0,0,1,3.09.53,3.65,3.65,0,0,1,1.52,1.52,5.85,5.85,0,0,1,.54,3.1v11.79a5.85,5.85,0,0,1-.54,3.1,3.65,3.65,0,0,1-1.52,1.52,5.81,5.81,0,0,1-3.09.53h-43.93a5.88,5.88,0,0,1-3.1-.53,3.71,3.71,0,0,1-1.52-1.52,5.88,5.88,0,0,1-.53-3.1v-11.79a5.88,5.88,0,0,1,.53-3.1,3.71,3.71,0,0,1,1.52-1.52A5.88,5.88,0,0,1-2238.45-173.53Z"/></clipPath><clipPath id="clip-path-8"><path class="cls-1" d="M-2332-178.56h3a3,3,0,0,1,3,3v26.11a3,3,0,0,1-3,3h-3a3,3,0,0,1-3-3v-26.11A3,3,0,0,1-2332-178.56Zm-14.06,7h3a3,3,0,0,1,3,3v19.08a3,3,0,0,1-3,3h-3a3,3,0,0,1-3-3v-19.08A3,3,0,0,1-2346-171.52Zm-14.06,7h3a3,3,0,0,1,3,3v12a3,3,0,0,1-3,3h-3a3,3,0,0,1-3-3v-12A3,3,0,0,1-2360.11-164.49Zm-14.06,6h3a3,3,0,0,1,3,3v6a3,3,0,0,1-3,3h-3a3,3,0,0,1-3-3v-6A3,3,0,0,1-2374.17-158.47Zm93.09,5.67a.9.9,0,0,0,.28-.69,1,1,0,0,0-.31-.69,10.36,10.36,0,0,0-13.37,0,1,1,0,0,0-.31.69.94.94,0,0,0,.28.69l6.05,6.1a.91.91,0,0,0,.67.28,1,1,0,0,0,.67-.28Zm-6.71-8.41a14.85,14.85,0,0,1,10,3.84.94.94,0,0,0,1.31,0l3.49-3.53a.94.94,0,0,0,.29-.69,1,1,0,0,0-.3-.7,21.68,21.68,0,0,0-29.5,0,1,1,0,0,0-.3.7.94.94,0,0,0,.29.69l3.49,3.53a.94.94,0,0,0,1.31,0A14.85,14.85,0,0,1-2287.79-161.21Zm0-11.47a26.13,26.13,0,0,1,18,7.18.92.92,0,0,0,1.31,0l3.5-3.52a1,1,0,0,0,.28-.69.94.94,0,0,0-.29-.69,33,33,0,0,0-45.61,0,.94.94,0,0,0-.29.69,1,1,0,0,0,.28.69l3.5,3.52a.92.92,0,0,0,1.31,0A26.16,26.16,0,0,1-2287.79-172.68Z"/></clipPath></defs><g id="Layer_1" data-name="Layer 1"><g class="cls-10"><path class="cls-11" d="M80.14,181.82V63.73l-7.53-1.27S61,67.53,56,70.43s-10.9,5.39-10.88,23.64c0,17.79,5.79,52.43,2.92,66.37L45.5,177.92S67.6,182.49,80.14,181.82Z"/><path class="cls-11" d="M66.87,60.85s-4.65-1.55-5.76-3.32c0,0-7.79,3.47-13.93,5.51C32.26,68,28.29,73.58,25.05,88.18c-3,13.68-5.54,22.47-5.54,22.47s3.76,10.4,23.68,10.18c0,0-1.16-8.34-1.62-17.63-.4-8.14-2.49-24.89,5.92-31.49C54,66.63,66.87,60.85,66.87,60.85Z"/><path class="cls-11" d="M84.57,181.82V63.73l7.54-1.27s11.62,5.07,16.58,8,10.9,5.39,10.89,23.64c0,17.79-5.8,52.43-2.92,66.37l2.55,17.48S97.14,182.49,84.57,181.82Z"/><path class="cls-11" d="M45.5,182.49s27.74,3.76,37.15,3.76,36.29-3.76,36.29-3.76-8.6,12.61-36.72,12.61S45.5,182.49,45.5,182.49Z"/><path class="cls-11" d="M98.17,44.57c0,1.77-6.78,4.69-15.15,4.69s-15.14-2.92-15.14-4.69S74.66,41.38,83,41.38,98.17,42.81,98.17,44.57Z"/><path class="cls-11" d="M83.81,60.19C96.3,60,101.9,54.32,101.9,54.32L99.83,48.6a43.75,43.75,0,0,1-16,4.12Z"/><path class="cls-11" d="M80.63,52.64A49.08,49.08,0,0,1,66.3,49l-2.16,6a34.11,34.11,0,0,0,16.49,5.14Z"/><path class="cls-11" d="M123.3,100.61,140.75,93c-.35-1.52-.72-3.11-1.09-4.79C136.42,73.58,132.46,68,117.53,63c-6.13-2-13.93-5.51-13.93-5.51-1.1,1.77-5.75,3.32-5.75,3.32s12.91,5.78,19.38,10.86C124.83,77.67,123.85,91.91,123.3,100.61Z"/><path class="cls-11" d="M141.49,96.12l-18.4,8c-.07,1.28-.15,2.53-.24,3.74l19.43-8.5C142,98.38,141.76,97.27,141.49,96.12Z"/><path class="cls-11" d="M122.9,111.36a1.3,1.3,0,0,1-.33.07c-.49,5.47-1,9.4-1,9.4,19.92.22,23.68-10.18,23.68-10.18s-.85-3-2.15-8.11Z"/></g></g></svg>