<svg xmlns="http://www.w3.org/2000/svg" xmlns:xlink="http://www.w3.org/1999/xlink" viewBox="0 0 160 238"><defs><style>.cls-1{fill:none;}.cls-2{clip-path:url(#clip-path);}.cls-3{clip-path:url(#clip-path-2);}.cls-4{clip-path:url(#clip-path-3);}.cls-5{clip-path:url(#clip-path-4);}.cls-6{clip-path:url(#clip-path-5);}.cls-7{clip-path:url(#clip-path-6);}.cls-8{clip-path:url(#clip-path-7);}.cls-9{clip-path:url(#clip-path-8);}.cls-10{opacity:0.6;}.cls-11{fill:#fff;}</style><clipPath id="clip-path"><path class="cls-1" d="M-1091.9,1696.6h388.68a7.54,7.54,0,0,1,7.53,7.54,7.53,7.53,0,0,1-7.53,7.53H-1091.9a7.53,7.53,0,0,1-7.53-7.53A7.54,7.54,0,0,1-1091.9,1696.6Z"/></clipPath><clipPath id="clip-path-2"><path class="cls-1" d="M-381.33-644.51v12a6.55,6.55,0,0,0,4-6,6.54,6.54,0,0,0-4-6"/></clipPath><clipPath id="clip-path-3"><path class="cls-1" d="M-439.45-649.53h43.93a5.81,5.81,0,0,1,3.09.53,3.65,3.65,0,0,1,1.52,1.52,5.85,5.85,0,0,1,.54,3.1v11.79a5.85,5.85,0,0,1-.54,3.1,3.65,3.65,0,0,1-1.52,1.52,5.81,5.81,0,0,1-3.09.53h-43.93a5.88,5.88,0,0,1-3.1-.53,3.71,3.71,0,0,1-1.52-1.52,5.88,5.88,0,0,1-.53-3.1v-11.79a5.88,5.88,0,0,1,.53-3.1,3.71,3.71,0,0,1,1.52-1.52A5.88,5.88,0,0,1-439.45-649.53Z"/></clipPath><clipPath id="clip-path-4"><path class="cls-1" d="M-533-654.56h3a3,3,0,0,1,3,3v26.11a3,3,0,0,1-3,3h-3a3,3,0,0,1-3-3v-26.11A3,3,0,0,1-533-654.56Zm-14.06,7h3a3,3,0,0,1,3,3v19.08a3,3,0,0,1-3,3h-3a3,3,0,0,1-3-3v-19.08A3,3,0,0,1-547-647.52Zm-14.06,7h3a3,3,0,0,1,3,3v12.05a3,3,0,0,1-3,3h-3a3,3,0,0,1-3-3v-12.05A3,3,0,0,1-561.11-640.49Zm-14.06,6h3a3,3,0,0,1,3,3v6a3,3,0,0,1-3,3h-3a3,3,0,0,1-3-3v-6A3,3,0,0,1-575.17-634.47Zm93.09,5.67a.9.9,0,0,0,.28-.69,1,1,0,0,0-.31-.69,10.36,10.36,0,0,0-13.37,0,1,1,0,0,0-.31.69.94.94,0,0,0,.28.69l6.05,6.1a.91.91,0,0,0,.67.28,1,1,0,0,0,.67-.28Zm-6.71-8.41a14.85,14.85,0,0,1,10,3.84.94.94,0,0,0,1.31,0l3.49-3.53a.94.94,0,0,0,.29-.69,1,1,0,0,0-.3-.7,21.68,21.68,0,0,0-29.5,0,1,1,0,0,0-.3.7.94.94,0,0,0,.29.69l3.49,3.53a.94.94,0,0,0,1.31,0A14.85,14.85,0,0,1-488.79-637.21Zm0-11.47a26.13,26.13,0,0,1,18,7.18.92.92,0,0,0,1.31,0L-466-645a1,1,0,0,0,.28-.69.94.94,0,0,0-.29-.69,33,33,0,0,0-45.61,0,.94.94,0,0,0-.29.69,1,1,0,0,0,.28.69l3.5,3.52a.92.92,0,0,0,1.31,0A26.16,26.16,0,0,1-488.79-648.68Z"/></clipPath><clipPath id="clip-path-5"><path class="cls-1" d="M-2679.9,1696.6h388.68a7.54,7.54,0,0,1,7.53,7.54,7.53,7.53,0,0,1-7.53,7.53H-2679.9a7.53,7.53,0,0,1-7.53-7.53A7.54,7.54,0,0,1-2679.9,1696.6Z"/></clipPath><clipPath id="clip-path-6"><path class="cls-1" d="M-1969.33-644.51v12a6.55,6.55,0,0,0,4-6,6.54,6.54,0,0,0-4-6"/></clipPath><clipPath id="clip-path-7"><path class="cls-1" d="M-2027.45-649.53h43.93a5.81,5.81,0,0,1,3.09.53,3.65,3.65,0,0,1,1.52,1.52,5.85,5.85,0,0,1,.54,3.1v11.79a5.85,5.85,0,0,1-.54,3.1,3.65,3.65,0,0,1-1.52,1.52,5.81,5.81,0,0,1-3.09.53h-43.93a5.88,5.88,0,0,1-3.1-.53,3.71,3.71,0,0,1-1.52-1.52,5.88,5.88,0,0,1-.53-3.1v-11.79a5.88,5.88,0,0,1,.53-3.1,3.71,3.71,0,0,1,1.52-1.52A5.88,5.88,0,0,1-2027.45-649.53Z"/></clipPath><clipPath id="clip-path-8"><path class="cls-1" d="M-2121-654.56h3a3,3,0,0,1,3,3v26.11a3,3,0,0,1-3,3h-3a3,3,0,0,1-3-3v-26.11A3,3,0,0,1-2121-654.56Zm-14.06,7h3a3,3,0,0,1,3,3v19.08a3,3,0,0,1-3,3h-3a3,3,0,0,1-3-3v-19.08A3,3,0,0,1-2135-647.52Zm-14.06,7h3a3,3,0,0,1,3,3v12.05a3,3,0,0,1-3,3h-3a3,3,0,0,1-3-3v-12.05A3,3,0,0,1-2149.11-640.49Zm-14.06,6h3a3,3,0,0,1,3,3v6a3,3,0,0,1-3,3h-3a3,3,0,0,1-3-3v-6A3,3,0,0,1-2163.17-634.47Zm93.09,5.67a.9.9,0,0,0,.28-.69,1,1,0,0,0-.31-.69,10.36,10.36,0,0,0-13.37,0,1,1,0,0,0-.31.69.94.94,0,0,0,.28.69l6.05,6.1a.91.91,0,0,0,.67.28,1,1,0,0,0,.67-.28Zm-6.71-8.41a14.85,14.85,0,0,1,10,3.84.94.94,0,0,0,1.31,0l3.49-3.53a.94.94,0,0,0,.29-.69,1,1,0,0,0-.3-.7,21.68,21.68,0,0,0-29.5,0,1,1,0,0,0-.3.7.94.94,0,0,0,.29.69l3.49,3.53a.94.94,0,0,0,1.31,0A14.85,14.85,0,0,1-2076.79-637.21Zm0-11.47a26.13,26.13,0,0,1,18,7.18.92.92,0,0,0,1.31,0l3.5-3.52a1,1,0,0,0,.28-.69.94.94,0,0,0-.29-.69,33,33,0,0,0-45.61,0,.94.94,0,0,0-.29.69,1,1,0,0,0,.28.69l3.5,3.52a.92.92,0,0,0,1.31,0A26.16,26.16,0,0,1-2076.79-648.68Z"/></clipPath></defs><g id="Art"><g class="cls-10"><path class="cls-11" d="M77.6,182.29V64.71l-7.5-1.27s-11.57,5-16.52,7.94S42.73,76.75,42.75,94.93c0,17.7,5.77,52.19,2.9,66.08l-2.54,17.4S65.11,183,77.6,182.29Z"/><path class="cls-11" d="M82,182.29V64.71l7.51-1.27s11.57,5,16.51,7.94,10.85,5.37,10.84,23.55c0,17.7-5.77,52.19-2.91,66.08l2.55,17.4S94.53,183,82,182.29Z"/><path class="cls-11" d="M43.11,183s27.62,3.74,37,3.74S116.23,183,116.23,183s-8.56,12.56-36.56,12.56S43.11,183,43.11,183Z"/><path class="cls-11" d="M95.55,45.64c0,1.75-6.75,4.66-15.08,4.66s-15.08-2.91-15.08-4.66,6.75-3.19,15.08-3.19S95.55,43.88,95.55,45.64Z"/><path class="cls-11" d="M81.26,61.19c12.43-.24,18-5.84,18-5.84L97.2,49.64a43.45,43.45,0,0,1-15.94,4.11Z"/><path class="cls-11" d="M78.09,53.67a49.14,49.14,0,0,1-14.27-3.61L61.67,56a33.85,33.85,0,0,0,16.42,5.12Z"/><path class="cls-11" d="M58.65,58.54S50.89,62,44.78,64C29.92,69,26,74.52,22.75,89.06c-2.56,11.55-8.94,41.43-11,51.84a11.1,11.1,0,0,0,.65,7.14c4.29,12.13,9.21,25.27,12.33,33.25l16.51-3.45c-2.11-8.6-4.49-22.68-6.45-29.69-2.33-8.14,5.81-26.59,6-26.59,0,0-1.16-8.3-1.62-17.55-.4-8.1-2.47-24.78,5.9-31.36,6.44-5.05,19.29-10.8,19.29-10.8S59.76,60.31,58.65,58.54Z"/><path class="cls-11" d="M101,58.54S108.72,62,114.83,64c14.86,4.94,18.81,10.49,22,25,2.56,11.55,8.95,41.43,11,51.84a11.1,11.1,0,0,1-.64,7.14c-4.3,12.13-9.21,25.27-12.33,33.25l-16.51-3.45c2.1-8.6,4.48-22.68,6.45-29.69,2.32-8.14-5.82-26.59-6-26.59,0,0,1.16-8.3,1.61-17.55.4-8.1,2.48-24.78-5.89-31.36-6.44-5.05-19.3-10.8-19.3-10.8S99.86,60.31,101,58.54Z"/></g></g></svg>