<svg xmlns="http://www.w3.org/2000/svg" xmlns:xlink="http://www.w3.org/1999/xlink" viewBox="0 0 160 238"><defs><style>.cls-1{fill:none;}.cls-2{clip-path:url(#clip-path);}.cls-3{clip-path:url(#clip-path-2);}.cls-4{clip-path:url(#clip-path-3);}.cls-5{clip-path:url(#clip-path-4);}.cls-6{clip-path:url(#clip-path-5);}.cls-7{clip-path:url(#clip-path-6);}.cls-8{clip-path:url(#clip-path-7);}.cls-9{clip-path:url(#clip-path-8);}.cls-10,.cls-12{fill:#fff;}.cls-10,.cls-11{opacity:0.6;}</style><clipPath id="clip-path"><path class="cls-1" d="M-1091.9,1934.6h388.68a7.54,7.54,0,0,1,7.53,7.54,7.53,7.53,0,0,1-7.53,7.53H-1091.9a7.53,7.53,0,0,1-7.53-7.53A7.54,7.54,0,0,1-1091.9,1934.6Z"/></clipPath><clipPath id="clip-path-2"><path class="cls-1" d="M-381.33-406.51v12.05a6.55,6.55,0,0,0,4-6,6.54,6.54,0,0,0-4-6"/></clipPath><clipPath id="clip-path-3"><path class="cls-1" d="M-439.45-411.53h43.93a5.81,5.81,0,0,1,3.09.53,3.65,3.65,0,0,1,1.52,1.52,5.85,5.85,0,0,1,.54,3.1v11.79a5.85,5.85,0,0,1-.54,3.1,3.65,3.65,0,0,1-1.52,1.52,5.81,5.81,0,0,1-3.09.53h-43.93a5.88,5.88,0,0,1-3.1-.53,3.71,3.71,0,0,1-1.52-1.52,5.88,5.88,0,0,1-.53-3.1v-11.79a5.88,5.88,0,0,1,.53-3.1,3.71,3.71,0,0,1,1.52-1.52A5.88,5.88,0,0,1-439.45-411.53Z"/></clipPath><clipPath id="clip-path-4"><path class="cls-1" d="M-533-416.56h3a3,3,0,0,1,3,3v26.11a3,3,0,0,1-3,3h-3a3,3,0,0,1-3-3v-26.11A3,3,0,0,1-533-416.56Zm-14.06,7h3a3,3,0,0,1,3,3v19.08a3,3,0,0,1-3,3h-3a3,3,0,0,1-3-3v-19.08A3,3,0,0,1-547-409.52Zm-14.06,7h3a3,3,0,0,1,3,3v12.05a3,3,0,0,1-3,3h-3a3,3,0,0,1-3-3v-12.05A3,3,0,0,1-561.11-402.49Zm-14.06,6h3a3,3,0,0,1,3,3v6a3,3,0,0,1-3,3h-3a3,3,0,0,1-3-3v-6A3,3,0,0,1-575.17-396.47Zm93.09,5.67a.9.9,0,0,0,.28-.69,1,1,0,0,0-.31-.69,10.36,10.36,0,0,0-13.37,0,1,1,0,0,0-.31.69.94.94,0,0,0,.28.69l6.05,6.1a.91.91,0,0,0,.67.28,1,1,0,0,0,.67-.28Zm-6.71-8.41a14.85,14.85,0,0,1,10,3.84.94.94,0,0,0,1.31,0l3.49-3.53a.94.94,0,0,0,.29-.69,1,1,0,0,0-.3-.7,21.68,21.68,0,0,0-29.5,0,1,1,0,0,0-.3.7.94.94,0,0,0,.29.69l3.49,3.53a.94.94,0,0,0,1.31,0A14.85,14.85,0,0,1-488.79-399.21Zm0-11.47a26.13,26.13,0,0,1,18,7.18.92.92,0,0,0,1.31,0L-466-407a1,1,0,0,0,.28-.69.94.94,0,0,0-.29-.69,33,33,0,0,0-45.61,0,.94.94,0,0,0-.29.69,1,1,0,0,0,.28.69l3.5,3.52a.92.92,0,0,0,1.31,0A26.16,26.16,0,0,1-488.79-410.68Z"/></clipPath><clipPath id="clip-path-5"><path class="cls-1" d="M-2679.9,1934.6h388.68a7.54,7.54,0,0,1,7.53,7.54,7.53,7.53,0,0,1-7.53,7.53H-2679.9a7.53,7.53,0,0,1-7.53-7.53A7.54,7.54,0,0,1-2679.9,1934.6Z"/></clipPath><clipPath id="clip-path-6"><path class="cls-1" d="M-1969.33-406.51v12.05a6.55,6.55,0,0,0,4-6,6.54,6.54,0,0,0-4-6"/></clipPath><clipPath id="clip-path-7"><path class="cls-1" d="M-2027.45-411.53h43.93a5.81,5.81,0,0,1,3.09.53,3.65,3.65,0,0,1,1.52,1.52,5.85,5.85,0,0,1,.54,3.1v11.79a5.85,5.85,0,0,1-.54,3.1,3.65,3.65,0,0,1-1.52,1.52,5.81,5.81,0,0,1-3.09.53h-43.93a5.88,5.88,0,0,1-3.1-.53,3.71,3.71,0,0,1-1.52-1.52,5.88,5.88,0,0,1-.53-3.1v-11.79a5.88,5.88,0,0,1,.53-3.1,3.71,3.71,0,0,1,1.52-1.52A5.88,5.88,0,0,1-2027.45-411.53Z"/></clipPath><clipPath id="clip-path-8"><path class="cls-1" d="M-2121-416.56h3a3,3,0,0,1,3,3v26.11a3,3,0,0,1-3,3h-3a3,3,0,0,1-3-3v-26.11A3,3,0,0,1-2121-416.56Zm-14.06,7h3a3,3,0,0,1,3,3v19.08a3,3,0,0,1-3,3h-3a3,3,0,0,1-3-3v-19.08A3,3,0,0,1-2135-409.52Zm-14.06,7h3a3,3,0,0,1,3,3v12.05a3,3,0,0,1-3,3h-3a3,3,0,0,1-3-3v-12.05A3,3,0,0,1-2149.11-402.49Zm-14.06,6h3a3,3,0,0,1,3,3v6a3,3,0,0,1-3,3h-3a3,3,0,0,1-3-3v-6A3,3,0,0,1-2163.17-396.47Zm93.09,5.67a.9.9,0,0,0,.28-.69,1,1,0,0,0-.31-.69,10.36,10.36,0,0,0-13.37,0,1,1,0,0,0-.31.69.94.94,0,0,0,.28.69l6.05,6.1a.91.91,0,0,0,.67.28,1,1,0,0,0,.67-.28Zm-6.71-8.41a14.85,14.85,0,0,1,10,3.84.94.94,0,0,0,1.31,0l3.49-3.53a.94.94,0,0,0,.29-.69,1,1,0,0,0-.3-.7,21.68,21.68,0,0,0-29.5,0,1,1,0,0,0-.3.7.94.94,0,0,0,.29.69l3.49,3.53a.94.94,0,0,0,1.31,0A14.85,14.85,0,0,1-2076.79-399.21Zm0-11.47a26.13,26.13,0,0,1,18,7.18.92.92,0,0,0,1.31,0l3.5-3.52a1,1,0,0,0,.28-.69.94.94,0,0,0-.29-.69,33,33,0,0,0-45.61,0,.94.94,0,0,0-.29.69,1,1,0,0,0,.28.69l3.5,3.52a.92.92,0,0,0,1.31,0A26.16,26.16,0,0,1-2076.79-410.68Z"/></clipPath></defs><g id="Layer_1" data-name="Layer 1"><path class="cls-10" d="M60.69,83.73a2.4,2.4,0,1,0,2.4,2.39A2.4,2.4,0,0,0,60.69,83.73Z"/><path class="cls-10" d="M43.13,182.94s27.61,3.74,37,3.74,36.11-3.74,36.11-3.74-8.55,12.55-36.54,12.55S43.13,182.94,43.13,182.94Z"/><path class="cls-10" d="M95.54,45.71c0,1.75-6.75,4.66-15.07,4.66S65.4,47.46,65.4,45.71s6.75-3.18,15.07-3.18S95.54,44,95.54,45.71Z"/><g class="cls-11"><path class="cls-12" d="M78.09,53.74a49,49,0,0,1-14.26-3.61l-2.15,5.94a33.83,33.83,0,0,0,16.41,5.12Z"/><path class="cls-12" d="M81.26,61.25c12.42-.23,18-5.84,18-5.84l-2.07-5.7a43.44,43.44,0,0,1-15.93,4.11Z"/></g><path class="cls-10" d="M116.84,95c0-18.17-5.88-20.64-10.83-23.53s-16.5-7.94-16.5-7.94L82,64.77v32.8h20.82a1.59,1.59,0,1,1,0,3.17H82v81.54c12.51.66,34.47-3.88,34.47-3.88L113.94,161C111.08,147.13,116.83,112.66,116.84,95Zm-10.23,14.28H93.68a1.58,1.58,0,0,1,0-3.16h12.93a1.58,1.58,0,1,1,0,3.16Z"/><path class="cls-10" d="M58.67,58.61s-7.76,3.45-13.86,5.48C30,69,26,74.57,22.79,89.1c-2.56,11.55-8.94,41.41-11,51.81a11.06,11.06,0,0,0,.64,7.13c4.29,12.13,9.21,25.26,12.32,33.23l16.5-3.44c-2.1-8.59-4.48-22.67-6.44-29.68-2.33-8.13,5.81-26.56,6-26.56,0,0-1.15-8.3-1.61-17.54-.4-8.1-2.48-24.77,5.89-31.34,6.44-5,19.28-10.8,19.28-10.8S59.77,60.37,58.67,58.61Z"/><path class="cls-10" d="M101,58.61s7.75,3.45,13.86,5.48c14.85,4.94,18.8,10.48,22,25,2.56,11.55,8.94,41.41,11,51.81a11,11,0,0,1-.65,7.13c-4.29,12.13-9.2,25.26-12.32,33.23l-16.5-3.44c2.11-8.59,4.49-22.67,6.45-29.68,2.32-8.13-5.81-26.56-6-26.56,0,0,1.16-8.3,1.62-17.54.39-8.1,2.47-24.77-5.89-31.34-6.44-5-19.29-10.8-19.29-10.8S99.85,60.37,101,58.61Z"/><path class="cls-10" d="M56.51,100.74a1.59,1.59,0,0,1,0-3.17h21.1V64.77l-7.5-1.27s-11.57,5-16.51,7.94S42.76,76.8,42.77,95c0,17.69,5.77,52.16,2.91,66l-2.55,17.4s22,4.54,34.48,3.88V100.74Zm4.18-20.17a5.56,5.56,0,1,1-5.55,5.55A5.56,5.56,0,0,1,60.69,80.57ZM69,172.1a1.58,1.58,0,1,1-3.16,0v-7.44a1.58,1.58,0,0,1,3.16,0Z"/></g></svg>