<svg xmlns="http://www.w3.org/2000/svg" xmlns:xlink="http://www.w3.org/1999/xlink" viewBox="0 0 160 238"><defs><style>.cls-1{fill:none;}.cls-2{clip-path:url(#clip-path);}.cls-3{clip-path:url(#clip-path-2);}.cls-4{clip-path:url(#clip-path-3);}.cls-5{clip-path:url(#clip-path-4);}.cls-6{clip-path:url(#clip-path-5);}.cls-7{clip-path:url(#clip-path-6);}.cls-8{clip-path:url(#clip-path-7);}.cls-9{clip-path:url(#clip-path-8);}.cls-10{opacity:0.6;}.cls-11{fill:#fff;}</style><clipPath id="clip-path"><path class="cls-1" d="M-1302.9,1934.6h388.68a7.54,7.54,0,0,1,7.53,7.54,7.53,7.53,0,0,1-7.53,7.53H-1302.9a7.53,7.53,0,0,1-7.53-7.53A7.54,7.54,0,0,1-1302.9,1934.6Z"/></clipPath><clipPath id="clip-path-2"><path class="cls-1" d="M-592.33-406.51v12.05a6.55,6.55,0,0,0,4-6,6.54,6.54,0,0,0-4-6"/></clipPath><clipPath id="clip-path-3"><path class="cls-1" d="M-650.45-411.53h43.93a5.81,5.81,0,0,1,3.09.53,3.65,3.65,0,0,1,1.52,1.52,5.85,5.85,0,0,1,.54,3.1v11.79a5.85,5.85,0,0,1-.54,3.1,3.65,3.65,0,0,1-1.52,1.52,5.81,5.81,0,0,1-3.09.53h-43.93a5.88,5.88,0,0,1-3.1-.53,3.71,3.71,0,0,1-1.52-1.52,5.88,5.88,0,0,1-.53-3.1v-11.79a5.88,5.88,0,0,1,.53-3.1,3.71,3.71,0,0,1,1.52-1.52A5.88,5.88,0,0,1-650.45-411.53Z"/></clipPath><clipPath id="clip-path-4"><path class="cls-1" d="M-744-416.56h3a3,3,0,0,1,3,3v26.11a3,3,0,0,1-3,3h-3a3,3,0,0,1-3-3v-26.11A3,3,0,0,1-744-416.56Zm-14.06,7h3a3,3,0,0,1,3,3v19.08a3,3,0,0,1-3,3h-3a3,3,0,0,1-3-3v-19.08A3,3,0,0,1-758-409.52Zm-14.06,7h3a3,3,0,0,1,3,3v12.05a3,3,0,0,1-3,3h-3a3,3,0,0,1-3-3v-12.05A3,3,0,0,1-772.11-402.49Zm-14.06,6h3a3,3,0,0,1,3,3v6a3,3,0,0,1-3,3h-3a3,3,0,0,1-3-3v-6A3,3,0,0,1-786.17-396.47Zm93.09,5.67a.9.9,0,0,0,.28-.69,1,1,0,0,0-.31-.69,10.36,10.36,0,0,0-13.37,0,1,1,0,0,0-.31.69.94.94,0,0,0,.28.69l6,6.1a.91.91,0,0,0,.67.28,1,1,0,0,0,.67-.28Zm-6.71-8.41a14.85,14.85,0,0,1,10,3.84.94.94,0,0,0,1.31,0l3.49-3.53a.94.94,0,0,0,.29-.69,1,1,0,0,0-.3-.7,21.68,21.68,0,0,0-29.5,0,1,1,0,0,0-.3.7.94.94,0,0,0,.29.69l3.49,3.53a.94.94,0,0,0,1.31,0A14.85,14.85,0,0,1-699.79-399.21Zm0-11.47a26.13,26.13,0,0,1,18,7.18.92.92,0,0,0,1.31,0L-677-407a1,1,0,0,0,.28-.69.94.94,0,0,0-.29-.69,33,33,0,0,0-45.61,0,.94.94,0,0,0-.29.69,1,1,0,0,0,.28.69l3.5,3.52a.92.92,0,0,0,1.31,0A26.16,26.16,0,0,1-699.79-410.68Z"/></clipPath><clipPath id="clip-path-5"><path class="cls-1" d="M-2890.9,1934.6h388.68a7.54,7.54,0,0,1,7.53,7.54,7.53,7.53,0,0,1-7.53,7.53H-2890.9a7.53,7.53,0,0,1-7.53-7.53A7.54,7.54,0,0,1-2890.9,1934.6Z"/></clipPath><clipPath id="clip-path-6"><path class="cls-1" d="M-2180.33-406.51v12.05a6.55,6.55,0,0,0,4-6,6.54,6.54,0,0,0-4-6"/></clipPath><clipPath id="clip-path-7"><path class="cls-1" d="M-2238.45-411.53h43.93a5.81,5.81,0,0,1,3.09.53,3.65,3.65,0,0,1,1.52,1.52,5.85,5.85,0,0,1,.54,3.1v11.79a5.85,5.85,0,0,1-.54,3.1,3.65,3.65,0,0,1-1.52,1.52,5.81,5.81,0,0,1-3.09.53h-43.93a5.88,5.88,0,0,1-3.1-.53,3.71,3.71,0,0,1-1.52-1.52,5.88,5.88,0,0,1-.53-3.1v-11.79a5.88,5.88,0,0,1,.53-3.1,3.71,3.71,0,0,1,1.52-1.52A5.88,5.88,0,0,1-2238.45-411.53Z"/></clipPath><clipPath id="clip-path-8"><path class="cls-1" d="M-2332-416.56h3a3,3,0,0,1,3,3v26.11a3,3,0,0,1-3,3h-3a3,3,0,0,1-3-3v-26.11A3,3,0,0,1-2332-416.56Zm-14.06,7h3a3,3,0,0,1,3,3v19.08a3,3,0,0,1-3,3h-3a3,3,0,0,1-3-3v-19.08A3,3,0,0,1-2346-409.52Zm-14.06,7h3a3,3,0,0,1,3,3v12.05a3,3,0,0,1-3,3h-3a3,3,0,0,1-3-3v-12.05A3,3,0,0,1-2360.11-402.49Zm-14.06,6h3a3,3,0,0,1,3,3v6a3,3,0,0,1-3,3h-3a3,3,0,0,1-3-3v-6A3,3,0,0,1-2374.17-396.47Zm93.09,5.67a.9.9,0,0,0,.28-.69,1,1,0,0,0-.31-.69,10.36,10.36,0,0,0-13.37,0,1,1,0,0,0-.31.69.94.94,0,0,0,.28.69l6.05,6.1a.91.91,0,0,0,.67.28,1,1,0,0,0,.67-.28Zm-6.71-8.41a14.85,14.85,0,0,1,10,3.84.94.94,0,0,0,1.31,0l3.49-3.53a.94.94,0,0,0,.29-.69,1,1,0,0,0-.3-.7,21.68,21.68,0,0,0-29.5,0,1,1,0,0,0-.3.7.94.94,0,0,0,.29.69l3.49,3.53a.94.94,0,0,0,1.31,0A14.85,14.85,0,0,1-2287.79-399.21Zm0-11.47a26.13,26.13,0,0,1,18,7.18.92.92,0,0,0,1.31,0l3.5-3.52a1,1,0,0,0,.28-.69.94.94,0,0,0-.29-.69,33,33,0,0,0-45.61,0,.94.94,0,0,0-.29.69,1,1,0,0,0,.28.69l3.5,3.52a.92.92,0,0,0,1.31,0A26.16,26.16,0,0,1-2287.79-410.68Z"/></clipPath></defs><g id="Layer_1" data-name="Layer 1"><g class="cls-10"><path class="cls-11" d="M66.87,61.63s-4.65-1.55-5.76-3.32c0,0-7.79,3.46-13.93,5.5C32.26,68.78,28.29,74.35,25.05,89c-3,13.68-5.54,22.46-5.54,22.46s3.76,10.4,23.68,10.18c0,0-1.16-8.34-1.62-17.62-.4-8.14-2.49-24.9,5.92-31.5C54,67.4,66.87,61.63,66.87,61.63Z"/><path class="cls-11" d="M97.85,61.63s4.65-1.55,5.75-3.32c0,0,7.8,3.46,13.93,5.5,14.93,5,18.9,10.54,22.13,25.15,3,13.68,5.55,22.46,5.55,22.46s-3.76,10.4-23.68,10.18c0,0,1.16-8.34,1.62-17.62.4-8.14,2.49-24.9-5.92-31.5C110.76,67.4,97.85,61.63,97.85,61.63Z"/><path class="cls-11" d="M45.5,183.26S73.24,187,82.65,187s36.29-3.76,36.29-3.76-8.6,12.61-36.72,12.61S45.5,183.26,45.5,183.26Z"/><path class="cls-11" d="M98.17,45.34C98.17,47.11,91.39,50,83,50s-15.14-2.92-15.14-4.69S74.66,42.15,83,42.15,98.17,43.58,98.17,45.34Z"/><path class="cls-11" d="M83.81,61c12.49-.24,18.09-5.87,18.09-5.87l-2.07-5.73a43.66,43.66,0,0,1-16,4.13Z"/><path class="cls-11" d="M80.63,53.41A49.08,49.08,0,0,1,66.3,49.78l-2.16,6a34.05,34.05,0,0,0,16.49,5.15Z"/><path class="cls-11" d="M84.57,103.66h34.67c.12-1.77.2-3.46.26-5H84.57Z"/><path class="cls-11" d="M117.6,123.15h-33v59.44c12.57.67,34.64-3.89,34.64-3.89l-2.55-17.49C115,153.08,116.25,137.91,117.6,123.15Z"/><path class="cls-11" d="M119,106.8H84.57v5.07h34.05C118.77,110.14,118.9,108.44,119,106.8Z"/><path class="cls-11" d="M119.57,95.47c0-.21,0-.42,0-.62,0-18.26-5.92-20.75-10.89-23.65s-16.58-8-16.58-8L84.57,64.5v31Z"/><path class="cls-11" d="M118.35,115H84.57v5.1h33.31C118,118.34,118.2,116.64,118.35,115Z"/><path class="cls-11" d="M80.14,106.8H45.69c.12,1.64.26,3.34.41,5.07h34Z"/><path class="cls-11" d="M45.47,103.66H80.14v-5H45.21C45.27,100.2,45.36,101.89,45.47,103.66Z"/><path class="cls-11" d="M47.11,123.15c1.36,14.76,2.62,29.93,1,38.06L45.5,178.7s22.1,4.56,34.64,3.89V123.15Z"/><path class="cls-11" d="M80.14,95.47v-31l-7.53-1.27S61,68.3,56,71.2s-10.9,5.39-10.88,23.65v.62Z"/><path class="cls-11" d="M80.14,115H46.37c.15,1.68.3,3.38.46,5.1H80.14Z"/></g></g></svg>