<svg xmlns="http://www.w3.org/2000/svg" xmlns:xlink="http://www.w3.org/1999/xlink" viewBox="0 0 160 238"><defs><style>.cls-1{fill:none;}.cls-2{clip-path:url(#clip-path);}.cls-3{clip-path:url(#clip-path-2);}.cls-4{clip-path:url(#clip-path-3);}.cls-5{clip-path:url(#clip-path-4);}.cls-6{clip-path:url(#clip-path-5);}.cls-7{clip-path:url(#clip-path-6);}.cls-8{clip-path:url(#clip-path-7);}.cls-9{clip-path:url(#clip-path-8);}.cls-10{opacity:0.6;}.cls-11{fill:#fff;}</style><clipPath id="clip-path"><path class="cls-1" d="M-1513.9,1934.6h388.68a7.54,7.54,0,0,1,7.53,7.54,7.53,7.53,0,0,1-7.53,7.53H-1513.9a7.53,7.53,0,0,1-7.53-7.53A7.54,7.54,0,0,1-1513.9,1934.6Z"/></clipPath><clipPath id="clip-path-2"><path class="cls-1" d="M-803.33-406.51v12.05a6.55,6.55,0,0,0,4-6,6.54,6.54,0,0,0-4-6"/></clipPath><clipPath id="clip-path-3"><path class="cls-1" d="M-861.45-411.53h43.93a5.81,5.81,0,0,1,3.09.53,3.65,3.65,0,0,1,1.52,1.52,5.85,5.85,0,0,1,.54,3.1v11.79a5.85,5.85,0,0,1-.54,3.1,3.65,3.65,0,0,1-1.52,1.52,5.81,5.81,0,0,1-3.09.53h-43.93a5.88,5.88,0,0,1-3.1-.53,3.71,3.71,0,0,1-1.52-1.52,5.88,5.88,0,0,1-.53-3.1v-11.79a5.88,5.88,0,0,1,.53-3.1,3.71,3.71,0,0,1,1.52-1.52A5.88,5.88,0,0,1-861.45-411.53Z"/></clipPath><clipPath id="clip-path-4"><path class="cls-1" d="M-955-416.56h3a3,3,0,0,1,3,3v26.11a3,3,0,0,1-3,3h-3a3,3,0,0,1-3-3v-26.11A3,3,0,0,1-955-416.56Zm-14.06,7h3a3,3,0,0,1,3,3v19.08a3,3,0,0,1-3,3h-3a3,3,0,0,1-3-3v-19.08A3,3,0,0,1-969-409.52Zm-14.06,7h3a3,3,0,0,1,3,3v12.05a3,3,0,0,1-3,3h-3a3,3,0,0,1-3-3v-12.05A3,3,0,0,1-983.11-402.49Zm-14.06,6h3a3,3,0,0,1,3,3v6a3,3,0,0,1-3,3h-3a3,3,0,0,1-3-3v-6A3,3,0,0,1-997.17-396.47Zm93.09,5.67a.9.9,0,0,0,.28-.69,1,1,0,0,0-.31-.69,10.36,10.36,0,0,0-13.37,0,1,1,0,0,0-.31.69.94.94,0,0,0,.28.69l6,6.1a.91.91,0,0,0,.67.28,1,1,0,0,0,.67-.28Zm-6.71-8.41a14.85,14.85,0,0,1,10,3.84.94.94,0,0,0,1.31,0l3.49-3.53a.94.94,0,0,0,.29-.69,1,1,0,0,0-.3-.7,21.68,21.68,0,0,0-29.5,0,1,1,0,0,0-.3.7.94.94,0,0,0,.29.69l3.49,3.53a.94.94,0,0,0,1.31,0A14.85,14.85,0,0,1-910.79-399.21Zm0-11.47a26.13,26.13,0,0,1,18,7.18.92.92,0,0,0,1.31,0L-888-407a1,1,0,0,0,.28-.69.94.94,0,0,0-.29-.69,33,33,0,0,0-45.61,0,.94.94,0,0,0-.29.69,1,1,0,0,0,.28.69l3.5,3.52a.92.92,0,0,0,1.31,0A26.16,26.16,0,0,1-910.79-410.68Z"/></clipPath><clipPath id="clip-path-5"><path class="cls-1" d="M-3101.9,1934.6h388.68a7.54,7.54,0,0,1,7.53,7.54,7.53,7.53,0,0,1-7.53,7.53H-3101.9a7.53,7.53,0,0,1-7.53-7.53A7.54,7.54,0,0,1-3101.9,1934.6Z"/></clipPath><clipPath id="clip-path-6"><path class="cls-1" d="M-2391.33-406.51v12.05a6.55,6.55,0,0,0,4-6,6.54,6.54,0,0,0-4-6"/></clipPath><clipPath id="clip-path-7"><path class="cls-1" d="M-2449.45-411.53h43.93a5.81,5.81,0,0,1,3.09.53,3.65,3.65,0,0,1,1.52,1.52,5.85,5.85,0,0,1,.54,3.1v11.79a5.85,5.85,0,0,1-.54,3.1,3.65,3.65,0,0,1-1.52,1.52,5.81,5.81,0,0,1-3.09.53h-43.93a5.88,5.88,0,0,1-3.1-.53,3.71,3.71,0,0,1-1.52-1.52,5.88,5.88,0,0,1-.53-3.1v-11.79a5.88,5.88,0,0,1,.53-3.1,3.71,3.71,0,0,1,1.52-1.52A5.88,5.88,0,0,1-2449.45-411.53Z"/></clipPath><clipPath id="clip-path-8"><path class="cls-1" d="M-2543-416.56h3a3,3,0,0,1,3,3v26.11a3,3,0,0,1-3,3h-3a3,3,0,0,1-3-3v-26.11A3,3,0,0,1-2543-416.56Zm-14.06,7h3a3,3,0,0,1,3,3v19.08a3,3,0,0,1-3,3h-3a3,3,0,0,1-3-3v-19.08A3,3,0,0,1-2557-409.52Zm-14.06,7h3a3,3,0,0,1,3,3v12.05a3,3,0,0,1-3,3h-3a3,3,0,0,1-3-3v-12.05A3,3,0,0,1-2571.11-402.49Zm-14.06,6h3a3,3,0,0,1,3,3v6a3,3,0,0,1-3,3h-3a3,3,0,0,1-3-3v-6A3,3,0,0,1-2585.17-396.47Zm93.09,5.67a.9.9,0,0,0,.28-.69,1,1,0,0,0-.31-.69,10.36,10.36,0,0,0-13.37,0,1,1,0,0,0-.31.69.94.94,0,0,0,.28.69l6.05,6.1a.91.91,0,0,0,.67.28,1,1,0,0,0,.67-.28Zm-6.71-8.41a14.85,14.85,0,0,1,10,3.84.94.94,0,0,0,1.31,0l3.49-3.53a.94.94,0,0,0,.29-.69,1,1,0,0,0-.3-.7,21.68,21.68,0,0,0-29.5,0,1,1,0,0,0-.3.7.94.94,0,0,0,.29.69l3.49,3.53a.94.94,0,0,0,1.31,0A14.85,14.85,0,0,1-2498.79-399.21Zm0-11.47a26.13,26.13,0,0,1,18,7.18.92.92,0,0,0,1.31,0l3.5-3.52a1,1,0,0,0,.28-.69.94.94,0,0,0-.29-.69,33,33,0,0,0-45.61,0,.94.94,0,0,0-.29.69,1,1,0,0,0,.28.69l3.5,3.52a.92.92,0,0,0,1.31,0A26.16,26.16,0,0,1-2498.79-410.68Z"/></clipPath></defs><g id="Art"><g class="cls-10"><path class="cls-11" d="M19.57,147.45H37.8v4.1H20v11.14H69.27v-6.84l-4-2A2,2,0,0,1,64.19,152V101.23a2.09,2.09,0,0,1,.34-1.14l2.27-3.4,0-.19a1.75,1.75,0,0,1,0-.51l2.51-32.68v-.07l-1.63-8.15a5.5,5.5,0,0,0-5.28-4.39,5.85,5.85,0,0,0-3.53,1.22,10.6,10.6,0,0,0-4.16,6.78l-6.3,37.82a2,2,0,1,1-4-.68L50.61,58a14.82,14.82,0,0,1,3.57-7.41l.26-.28L54.22,50a6.2,6.2,0,0,0-.73-.88,6,6,0,0,0-4.24-1.76h0A6,6,0,0,0,45,49.14a40.23,40.23,0,0,0-6.83,9.15,2.6,2.6,0,0,1-.45.82,40.54,40.54,0,0,0-4.29,13.7L30.16,98.94a2,2,0,0,1-.77,1.36,2,2,0,0,1-1.52.42,2.05,2.05,0,0,1-1.36-.77,2.08,2.08,0,0,1-.42-1.52L29.36,72.3a44.71,44.71,0,0,1,3.78-13.17l.34-.74-.81,0h-.13a3.08,3.08,0,0,0-2.14,1.1A66.24,66.24,0,0,0,18.34,81.17a17.07,17.07,0,0,0-.86,5.35v14.71a2.05,2.05,0,1,1-4.1,0V86.52a21.08,21.08,0,0,1,1.07-6.64l.28-.81,1.5-4.23-5.46,8.74A22.84,22.84,0,0,0,8,101.15l11.49,45.93Z"/><path class="cls-11" d="M135.33,154.44l-.73.39a15.07,15.07,0,0,1-17.71-2.59L114,149.37v13.32h21.31Z"/><path class="cls-11" d="M35.31,171.11l18.35-4.32H19.84l-2.17,23.85H29l-.58-.78a12,12,0,0,1,6.9-18.75Z"/><path class="cls-11" d="M80.35,78.07l.52-.22a7.37,7.37,0,0,1,3.25-.52,7.25,7.25,0,0,1,6.76,7.74c-.45,6.69-1.24,13.42-2.33,20l0,.18.11.16a30.51,30.51,0,0,0,23,14l.3,0,.16-.26a15.5,15.5,0,0,1,2.22-2.82l8.58-8.58,8-17.92A13.69,13.69,0,0,1,139,82.42a10.43,10.43,0,0,1,1.22-.32l.34-.07,1.27-8.91A20.2,20.2,0,0,0,139.21,60a10.41,10.41,0,0,0-8.82-5,5.64,5.64,0,0,0-1.42.18,5.9,5.9,0,0,0-4.29,7.14l1.77,7.06A32.85,32.85,0,0,1,124,92a2.05,2.05,0,1,1-3.67-1.83,28.66,28.66,0,0,0,2.17-19.77l-1.77-7.06a10,10,0,0,1,.16-5.41l1.55-4.65-2.24-3.37a5.63,5.63,0,0,0-4.69-2.51h-2.26a5.8,5.8,0,0,0-1.11.11,5.65,5.65,0,0,0-4.42,6.64l1.52,7.58c.58,2.93,1.06,5.9,1.41,8.84a116.93,116.93,0,0,1,.86,14.11v6.4a2,2,0,1,1-4.1,0v-6.4a113.61,113.61,0,0,0-2.19-22.14,10.87,10.87,0,0,0-6.33-7.84,5.19,5.19,0,0,0-3.28-.27,5.12,5.12,0,0,0-3.72,6.2l5,20a64.32,64.32,0,0,1,1.9,15.51,2,2,0,1,1-4.09,0,60.58,60.58,0,0,0-1.79-14.52l-1.31-5.22a10.9,10.9,0,0,0-4.92-6.72,4.76,4.76,0,0,0-7.11,5.21Z"/><path class="cls-11" d="M83,81.47a3.15,3.15,0,0,0-2,1.35l-12.6,18.9-.08.13v48.92l2,1,.93-2.17A196.81,196.81,0,0,0,86.79,84.8,3.18,3.18,0,0,0,83,81.47Z"/><path class="cls-11" d="M36.25,175.1a7.87,7.87,0,0,0,1.8,15.54H71.61l-2.12-23.36Z"/><path class="cls-11" d="M149.07,91.39a5.7,5.7,0,0,0-.22-.81,6.65,6.65,0,0,0-3.38-3.9,6.72,6.72,0,0,0-5.15-.37,9.57,9.57,0,0,0-5.68,5.17l-8.09,18.2a2.22,2.22,0,0,1-.43.62l-8.91,8.91a10.87,10.87,0,0,0-3.19,7.7v12.15a10.89,10.89,0,0,0,3.19,7.7l2.58,2.58A10.89,10.89,0,0,0,138,144.5l10.58-38.78A31.55,31.55,0,0,0,149.07,91.39Z"/><polygon class="cls-11" points="99.76 184.58 99.76 180.48 136.75 180.48 135.5 166.79 93.52 166.79 91.35 190.64 137.67 190.64 137.12 184.58 99.76 184.58"/><path class="cls-11" d="M109.92,162.69V126.91a14.87,14.87,0,0,1,.31-3l.1-.51-.52-.07a34.79,34.79,0,0,1-21.66-11.7l-.66-.75-.2,1q-.56,2.78-1.2,5.53v.12A97.69,97.69,0,0,0,88,135.91l5.36,26.78Z"/></g></g></svg>